<svg width="32" height="32" viewBox="0 0 32 32" fill="none" xmlns="http://www.w3.org/2000/svg">
<path d="M6.66699 4L2.66699 8M29.3337 8L25.3337 4M8.00033 25.3333L5.33366 28M24.0003 25.3333L26.667 28M16.0003 28C18.8293 28 21.5424 26.8762 23.5428 24.8758C25.5432 22.8754 26.667 20.1623 26.667 17.3333C26.667 14.5044 25.5432 11.7912 23.5428 9.79086C21.5424 7.79047 18.8293 6.66667 16.0003 6.66667C13.1713 6.66667 10.4582 7.79047 8.45785 9.79086C6.45747 11.7912 5.33366 14.5044 5.33366 17.3333C5.33366 20.1623 6.45747 22.8754 8.45785 24.8758C10.4582 26.8762 13.1713 28 16.0003 28Z" stroke="#B9B9B9" stroke-width="2" stroke-linecap="round" stroke-linejoin="round"/>
<path d="M16 21.3335V13.3335M12 17.3335H20" stroke="#EB3B4D" stroke-width="2" stroke-linecap="round" stroke-linejoin="round"/>
</svg>
