<svg width="149" height="52" viewBox="0 0 149 52" fill="none" xmlns="http://www.w3.org/2000/svg">
<g clip-path="url(#clip0_2_3340)">
<path d="M15.8901 20.2108C15.8901 22.9495 14.6438 24.4402 11.3896 24.4402H8.5855V16.1202C8.93169 16.1202 10.1087 16.1202 10.4895 16.1202H11.4589C14.7823 16.0855 15.8901 17.5069 15.8901 20.2108ZM22.5369 31.0615C22.5369 26.7628 19.0404 25.2375 14.8169 25.1335V24.9602C18.4173 24.6482 21.3599 23.1575 21.3599 19.5175C21.3599 15.4615 18.0019 14.6989 14.263 14.6989C9.76255 14.6989 4.46585 14.8029 0 14.6989V16.0855C0.934712 16.0162 3.25419 16.1549 3.25419 17.3335V34.5975C3.25419 35.7415 0.900093 35.9148 0 35.9148V37.2669C4.32737 37.1629 9.48559 37.2669 13.8476 37.2669C18.4519 37.2669 22.5369 35.7068 22.5369 31.0615ZM16.7556 30.6108C16.7556 34.1468 15.5093 35.8108 11.2512 35.8108H8.5855V25.8962H11.4589C15.3708 25.8962 16.8248 27.2135 16.8248 30.5762L16.7556 30.6108Z" fill="#B2B2B2"/>
<path d="M51.5481 37.2322C49.471 37.2322 47.5323 37.2322 45.4898 37.2322V35.8802C46.3899 35.8802 48.9517 35.8802 48.9517 34.5975V18.5815H48.8824L39.7777 37.5442H38.7045L29.842 18.5469H29.7728V34.5975C29.7728 35.8455 32.3 35.8802 33.2347 35.8802V37.2669C30.7075 37.1975 27.2802 37.1282 24.8223 37.2669V35.8802C25.7916 35.8802 27.938 35.8109 27.938 34.5975V17.3335C27.938 16.1549 25.6877 16.0509 24.8223 16.0509V14.6642C27.6956 14.8029 30.7767 14.8029 33.6155 14.6642L41.197 30.6802L48.9517 14.6989C51.7212 14.8375 54.8369 14.8029 57.6064 14.6989V16.0855C56.7063 16.0855 54.283 16.1548 54.283 17.3682V34.5975C54.283 35.8455 56.6371 35.8802 57.6064 35.8802V37.2669C55.5985 37.2322 53.556 37.2322 51.5481 37.2322Z" fill="#B2B2B2"/>
<path d="M78.8618 26.0003C78.8618 30.3336 78.4464 36.331 72.0419 36.331C65.6374 36.331 65.1873 30.2643 65.1873 26.0003C65.1873 21.7363 65.6374 15.739 72.0419 15.739C78.4118 15.739 78.8618 21.667 78.8618 26.0003ZM84.8163 26.0003C84.8163 18.5123 80.2466 14.3176 72.0073 14.3176C63.7679 14.3176 59.1982 18.443 59.1982 26.0003C59.1982 33.5576 63.7679 37.7176 72.0073 37.7176C80.3158 37.7176 84.8163 33.4883 84.8163 26.0003Z" fill="#B2B2B2"/>
<path d="M123.036 0.000244141C108.703 0.000244141 97.0713 11.6482 97.0713 26.0002C97.0713 40.3522 108.703 52.0002 123.036 52.0002C137.368 52.0002 149 40.3522 149 26.0002C149 11.6482 137.368 0.000244141 123.036 0.000244141Z" fill="#B2B2B2"/>
<path d="M122.24 18.0615L117.739 12.1682C117.532 11.9255 117.255 11.7869 116.943 11.7869C116.631 11.7869 116.354 11.9255 116.181 12.1682L110.815 18.9282V29.5362L116.181 22.6722C116.528 22.2215 117.185 22.1522 117.635 22.4989C117.705 22.5335 117.774 22.6029 117.808 22.6722L122.344 28.6002C122.517 28.8429 122.794 28.9469 123.071 28.9815C123.347 28.9815 123.624 28.8429 123.798 28.6002L128.333 22.6722C128.54 22.4295 128.852 22.2562 129.163 22.2562C129.475 22.2562 129.787 22.3949 129.96 22.6375L135.291 29.5015V18.8935L129.89 12.1335C129.683 11.8909 129.406 11.7522 129.129 11.7522C128.817 11.7522 128.506 11.8909 128.333 12.1335L123.867 18.0269C123.486 18.4775 122.828 18.5122 122.413 18.1655C122.274 18.1309 122.24 18.0962 122.24 18.0615Z" fill="#FAFAFA"/>
<path d="M135.29 37.3016H110.78V29.5363H135.29V37.3016Z" fill="#FAFAFA"/>
</g>
<defs>
<clipPath id="clip0_2_3340">
<rect width="149" height="52" fill="white" transform="translate(0 0.000244141)"/>
</clipPath>
</defs>
</svg>
