<svg width="24" height="25" viewBox="0 0 24 25" fill="none" xmlns="http://www.w3.org/2000/svg">
    <path d="M12.4912 13.5332L16.5673 9.67145C16.6415 9.59427 16.7313 9.53198 16.8313 9.48825C16.9314 9.44453 17.0396 9.42027 17.1498 9.41691C17.2599 9.41355 17.3696 9.43115 17.4724 9.46868C17.5752 9.5062 17.6691 9.56289 17.7483 9.63539C17.8276 9.70788 17.8907 9.79471 17.934 9.89073C17.9772 9.98674 17.9996 10.09 18 10.1944C18.0003 10.2988 17.9786 10.4022 17.936 10.4984C17.8934 10.5947 17.8309 10.6819 17.7521 10.7549L17.7321 10.7739L13.0741 15.188C12.9196 15.3343 12.7102 15.4165 12.4917 15.4165C12.2733 15.4165 12.0638 15.3343 11.9093 15.188L7.25138 10.775C7.17359 10.7038 7.11136 10.6187 7.06825 10.5247C7.02513 10.4307 7.00199 10.3296 7.00012 10.2271C6.99826 10.1247 7.01772 10.0229 7.05739 9.92751C7.09706 9.83217 7.15616 9.74516 7.23132 9.67145C7.30648 9.59775 7.39623 9.53879 7.49545 9.49794C7.59466 9.4571 7.70139 9.43517 7.80955 9.4334C7.91771 9.43164 8.02518 9.45007 8.12581 9.48765C8.22645 9.52524 8.31829 9.58123 8.39609 9.65244L8.41615 9.67145L12.4912 13.5332Z"
          stroke-width="0.75"/>
</svg>
