<svg width="140" height="36" viewBox="0 0 140 36" fill="none" xmlns="http://www.w3.org/2000/svg">
<g clip-path="url(#clip0_2_3348)">
<path fill-rule="evenodd" clip-rule="evenodd" d="M20.9449 26.5295C19.5118 27.6371 17.8031 28.191 15.9843 28.1356C10.9134 28.1356 7.55118 24.2033 7.55118 18.0002C7.55118 11.6864 10.9134 7.80945 15.9843 7.80945C17.6378 7.75407 19.2913 8.25253 20.6693 9.19407L24.4724 4.0433C22.1575 2.49253 19.8425 1.49561 15.3228 1.49561C5.56693 1.49561 0 8.14176 0 18.0002C0 28.1356 5.84252 34.4495 15.3228 34.4495C21.3858 34.4495 23.7559 32.3448 24.8031 31.6248L20.9449 26.5295Z" fill="#B2B2B2"/>
<path fill-rule="evenodd" clip-rule="evenodd" d="M89.8428 26.4741C88.4097 27.5818 86.6459 28.191 84.827 28.1356C79.7562 28.1356 76.394 24.2033 76.394 18.0002C76.394 11.6864 79.7562 7.80945 84.827 7.80945C86.4806 7.75407 88.1341 8.25253 89.5121 9.19407L93.3152 4.0433C90.9451 2.43714 88.6302 1.49561 84.1656 1.49561C74.4097 1.49561 68.8428 8.14176 68.8428 18.0002C68.8428 28.1356 74.6853 34.4495 84.1656 34.4495C90.2286 34.4495 92.5987 32.3448 93.6459 31.6248L89.8428 26.4741Z" fill="#B2B2B2"/>
<path fill-rule="evenodd" clip-rule="evenodd" d="M53.6302 2.04944C60.6302 2.04944 64.3231 4.87405 64.3231 10.191C64.3231 14.0679 61.8428 16.0064 59.4176 17.0033V17.0587C62.2286 17.8894 65.5357 19.7171 65.5357 24.7571C65.5357 30.6279 61.2365 33.8402 53.4097 33.8402H42.2207V2.04944H53.6302ZM52.638 20.1048H49.6065V28.3571H52.7483C55.9451 28.3571 58.0396 27.0833 58.0396 24.3141C58.0947 21.3787 55.9451 20.1048 52.638 20.1048ZM52.638 7.36636H49.6065V14.7325H52.4727C55.2837 14.7325 57.2679 13.6248 57.2679 11.0771C57.2679 9.41559 56.2207 7.36636 52.638 7.36636Z" fill="#B2B2B2"/>
<path fill-rule="evenodd" clip-rule="evenodd" d="M28.1104 33.8956H35.4411V2.04944H28.1104V33.8956Z" fill="#B2B2B2"/>
<path fill-rule="evenodd" clip-rule="evenodd" d="M127.819 1.38488C127.157 0.498724 126.11 -0.055122 124.952 0.000262604H113.157C114.315 -0.055122 115.362 0.498724 116.023 1.44026C117.236 3.04642 128.204 18.0003 128.204 18.0003C128.204 18.0003 117.236 33.0095 116.023 34.5603C115.362 35.5018 114.315 36.0003 113.157 36.0003H124.952C126.055 36.0556 127.157 35.5572 127.819 34.6157L140 18.0003L127.819 1.38488Z" fill="#B2B2B2"/>
<path fill-rule="evenodd" clip-rule="evenodd" d="M119.055 5.53872C117.567 3.48949 116.354 1.88334 116.024 1.44026C115.362 0.498724 114.315 0.000262604 113.158 0.000262604C112.055 -0.055122 110.953 0.498724 110.291 1.38488L98.1104 18.0003L110.291 34.6157C110.953 35.5018 112 36.0556 113.158 36.0003C114.315 36.0556 115.362 35.5018 116.024 34.5603L119.055 30.4618L109.906 18.0003L119.055 5.53872Z" fill="#A3A3A3"/>
</g>
<defs>
<clipPath id="clip0_2_3348">
<rect width="140" height="36" fill="white" transform="translate(0 0.000244141)"/>
</clipPath>
</defs>
</svg>
