<svg width="44" height="37" viewBox="0 0 44 37" fill="none" xmlns="http://www.w3.org/2000/svg">
<path id="Vector" d="M24 8.13785V4.09188H8V0.0458984H28V8.13785H30C31.1046 8.13785 32 9.04358 32 10.1608V14.6114L42.4266 7.22894C42.879 6.90858 43.5026 7.01989 43.8192 7.47755C43.9368 7.64756 44 7.85006 44 8.0576V32.494C44 33.0526 43.5522 33.5055 43 33.5055C42.7948 33.5055 42.5946 33.4416 42.4266 33.3226L32 25.9401V34.4367C32 35.554 31.1046 36.4597 30 36.4597H2C0.89544 36.4597 0 35.554 0 34.4367V10.1608C0 9.04358 0.89544 8.13785 2 8.13785H24ZM28 12.1838H4V32.4137H28V12.1838ZM32 21.0014L40 26.6658V13.8858L32 19.5501V21.0014ZM8 16.2298H12V20.2758H8V16.2298Z" fill="#A6FF88"/>
</svg>
