<svg width="198" height="198" viewBox="0 0 198 198" fill="none" xmlns="http://www.w3.org/2000/svg">
<g clip-path="url(#clip0_754_1216)">
<rect width="198" height="198" rx="99" fill="black"/>
<path d="M24.1606 52.8505L32.8061 58.1011L32.201 59.0973L23.5556 53.8467L24.1606 52.8505Z" fill="white"/>
<path d="M36.0335 53.5495C35.6075 54.1435 35.1089 54.5618 34.5377 54.8045C33.9658 55.0427 33.3596 55.1083 32.719 55.0014C32.0777 54.8899 31.4414 54.6078 30.8099 54.1549C30.1785 53.702 29.7044 53.1878 29.3878 52.6123C29.0705 52.0322 28.9254 51.4379 28.9526 50.8293C28.9791 50.2162 29.1919 49.6314 29.591 49.0748C29.8213 48.7537 30.1022 48.4751 30.4337 48.2388C30.7653 48.0025 31.1436 47.8423 31.5686 47.7581C31.991 47.672 32.4535 47.6938 32.9562 47.8234C33.4589 47.9529 33.9979 48.224 34.5731 48.6366L34.9745 48.9244L31.5664 53.6764L30.7476 53.0892L33.4649 49.3005C33.1171 49.051 32.7568 48.898 32.3841 48.8414C32.0133 48.7821 31.6578 48.8229 31.3177 48.9639C30.9794 49.1022 30.6875 49.3426 30.4419 49.6851C30.1713 50.0623 30.0308 50.4559 30.0205 50.8658C30.0094 51.2711 30.0995 51.6539 30.291 52.0141C30.4824 52.3742 30.7481 52.6762 31.0879 52.9199L31.6337 53.3113C32.0993 53.6452 32.5515 53.848 32.9904 53.9197C33.4285 53.9867 33.8355 53.9362 34.2113 53.7681C34.5844 53.5982 34.9082 53.3218 35.1826 52.9392C35.3611 52.6904 35.4875 52.4407 35.5618 52.1901C35.6354 51.935 35.6541 51.683 35.6178 51.4341C35.5789 51.1833 35.4812 50.941 35.3247 50.7072L36.2379 49.9764C36.4791 50.2953 36.636 50.6529 36.7083 51.0492C36.778 51.4436 36.7584 51.855 36.6497 52.2835C36.5382 52.7101 36.3328 53.1321 36.0335 53.5495Z" fill="white"/>
<path d="M40.6628 47.7527C40.3432 48.1118 39.9855 48.3775 39.5897 48.5498C39.1915 48.7199 38.7866 48.7761 38.3751 48.7184C37.9612 48.6586 37.5697 48.4645 37.2008 48.1361C36.8761 47.8472 36.6699 47.549 36.582 47.2416C36.4917 46.932 36.484 46.6188 36.5588 46.3019C36.6336 45.985 36.7577 45.6723 36.931 45.3637C37.104 45.0504 37.2904 44.7469 37.4902 44.4531C37.7524 44.0693 37.9676 43.7606 38.1359 43.5269C38.304 43.2886 38.4035 43.0951 38.4345 42.9463C38.4677 42.7951 38.4141 42.6572 38.274 42.5324L38.2444 42.5061C37.8804 42.1821 37.5089 42.03 37.1299 42.0497C36.7531 42.067 36.3863 42.2761 36.0295 42.677C35.6595 43.0927 35.4605 43.4996 35.4324 43.8977C35.4042 44.2958 35.4508 44.6347 35.572 44.9145L34.5413 45.4783C34.3283 45.0242 34.2354 44.5889 34.2624 44.1722C34.2892 43.7508 34.3947 43.3599 34.579 42.9993C34.7629 42.6341 34.9819 42.3089 35.2358 42.0235C35.3978 41.8415 35.606 41.6522 35.8604 41.4555C36.1146 41.2541 36.4066 41.1018 36.7364 40.9987C37.0684 40.8931 37.4341 40.8858 37.8336 40.9768C38.233 41.0678 38.6578 41.3136 39.1079 41.7142L42.8416 45.0372L42.0666 45.9079L41.2993 45.2249L41.2598 45.2692C41.3303 45.4376 41.3743 45.6531 41.3919 45.9156C41.4095 46.1782 41.3657 46.4676 41.2606 46.7839C41.1554 47.1002 40.9561 47.4231 40.6628 47.7527ZM39.9988 46.9238C40.3053 46.5794 40.496 46.229 40.5708 45.8725C40.6479 45.5135 40.633 45.1785 40.5263 44.8676C40.4218 44.5541 40.2515 44.2924 40.0153 44.0822L39.2184 43.373C39.2299 43.4493 39.1982 43.5665 39.1235 43.7248C39.0485 43.8784 38.9522 44.0485 38.8348 44.2349C38.7171 44.4166 38.6003 44.5925 38.4842 44.7625C38.3679 44.9279 38.2743 45.0628 38.2034 45.1672C38.0315 45.4197 37.8912 45.6739 37.7825 45.9298C37.6735 46.181 37.6306 46.4249 37.6537 46.6615C37.6765 46.8934 37.7986 47.1078 38.02 47.3048C38.3225 47.5741 38.6509 47.6657 39.005 47.5798C39.3589 47.4893 39.6902 47.2706 39.9988 46.9238Z" fill="white"/>
<path d="M44.5024 43.4065L39.3043 37.881L40.1245 37.1094L40.9096 37.944L40.9671 37.8899C40.8107 37.5217 40.7842 37.1284 40.8879 36.71C40.9915 36.2915 41.2088 35.9266 41.5397 35.6153C41.6021 35.5566 41.6811 35.4845 41.7769 35.3989C41.8727 35.3133 41.9468 35.2504 41.9993 35.21L42.8115 36.0734C42.776 36.0933 42.6999 36.1445 42.5832 36.2271C42.4667 36.3051 42.3521 36.3971 42.2394 36.5032C41.9708 36.7558 41.784 37.0378 41.679 37.3491C41.5741 37.6557 41.553 37.9648 41.6157 38.2765C41.6785 38.5836 41.8273 38.8618 42.0619 39.1112L45.3513 42.6078L44.5024 43.4065Z" fill="white"/>
<path d="M46.7228 35.2787L49.5366 38.8716L48.619 39.5903L43.9415 33.6177L44.828 32.9234L45.5589 33.8566L45.6366 33.7957C45.5391 33.3828 45.5608 32.9726 45.7018 32.5653C45.8408 32.1553 46.1358 31.7737 46.5869 31.4204C46.9913 31.1037 47.4101 30.9096 47.8433 30.8379C48.2745 30.7637 48.7053 30.8278 49.1357 31.0303C49.564 31.2301 49.9772 31.5841 50.3751 32.0922L53.3473 35.8873L52.4296 36.6059L49.5062 32.8731C49.1387 32.4039 48.7306 32.1338 48.2819 32.0628C47.8311 31.9892 47.3932 32.1189 46.9681 32.4519C46.6751 32.6813 46.4631 32.9498 46.3318 33.2575C46.2032 33.5632 46.1682 33.8896 46.2268 34.2369C46.2854 34.5841 46.4508 34.9314 46.7228 35.2787Z" fill="white"/>
<path d="M60.7753 31.3994C60.3549 31.6326 59.9295 31.7651 59.499 31.7968C59.0669 31.8256 58.6663 31.7447 58.297 31.5542C57.9262 31.3608 57.6209 31.0481 57.3814 30.6162C57.1706 30.2362 57.0745 29.8865 57.0933 29.5674C57.1104 29.2454 57.2067 28.9472 57.3822 28.6729C57.5576 28.3986 57.7781 28.1445 58.0437 27.9106C58.3106 27.6722 58.5869 27.4474 58.8726 27.2362C59.247 26.9608 59.5522 26.7406 59.7884 26.5757C60.0258 26.4064 60.1837 26.2567 60.2621 26.1266C60.3434 25.9949 60.3386 25.8469 60.2475 25.6828L60.2284 25.6483C59.992 25.2221 59.6917 24.9557 59.3275 24.849C58.9662 24.7406 58.5509 24.8166 58.0816 25.077C57.595 25.3469 57.2725 25.665 57.1143 26.0314C56.9561 26.3978 56.8879 26.7331 56.9098 27.0373L55.7507 27.2284C55.6998 26.7294 55.7561 26.2878 55.9194 25.9035C56.0841 25.5147 56.3129 25.1807 56.6061 24.9014C56.9005 24.6176 57.2147 24.383 57.5487 24.1978C57.7618 24.0796 58.0209 23.9697 58.326 23.8682C58.6325 23.7623 58.9584 23.7151 59.3038 23.7269C59.6521 23.737 59.9996 23.8511 60.3465 24.0691C60.6933 24.2871 61.0129 24.6596 61.3052 25.1865L63.7296 29.5574L62.7104 30.1227L62.212 29.2244L62.1602 29.2531C62.171 29.4354 62.1412 29.6534 62.071 29.9069C62.0008 30.1605 61.8638 30.4191 61.6599 30.6828C61.456 30.9466 61.1611 31.1854 60.7753 31.3994ZM60.4229 30.3976C60.826 30.174 61.1218 29.9063 61.3104 29.5946C61.5019 29.2813 61.5987 28.9603 61.6008 28.6315C61.6058 28.3012 61.5317 27.9978 61.3783 27.7214L60.8609 26.7885C60.8464 26.8643 60.7777 26.9645 60.6549 27.0891C60.5333 27.2093 60.3862 27.3379 60.2137 27.475C60.0426 27.6076 59.8741 27.735 59.7084 27.857C59.5439 27.9746 59.411 28.0709 59.3095 28.146C59.0638 28.3275 58.8473 28.521 58.6601 28.7265C58.4742 28.9276 58.353 29.1435 58.2965 29.3744C58.2414 29.6008 58.2857 29.8435 58.4294 30.1027C58.6259 30.4568 58.9054 30.6519 59.268 30.688C59.632 30.7196 60.0169 30.6228 60.4229 30.3976Z" fill="white"/>
<path d="M65.0952 23.8794L66.8768 28.0809L65.8037 28.5359L62.8422 21.5516L63.8789 21.112L64.3416 22.2033L64.4326 22.1648C64.4459 21.7407 64.5736 21.3503 64.8158 20.9937C65.0567 20.6341 65.4409 20.3424 65.9684 20.1188C66.4413 19.9183 66.8962 19.8398 67.3331 19.8834C67.7688 19.924 68.168 20.0981 68.5309 20.4056C68.8924 20.71 69.1992 21.1593 69.4511 21.7535L71.3329 26.1914L70.2598 26.6464L68.4089 22.2813C68.1762 21.7326 67.8525 21.3656 67.4377 21.1802C67.0217 20.9918 66.5651 21.0031 66.0679 21.2139C65.7254 21.3591 65.4507 21.5632 65.2439 21.8261C65.0401 22.0878 64.9213 22.3939 64.8875 22.7444C64.8538 23.0949 64.923 23.4732 65.0952 23.8794Z" fill="white"/>
<path d="M76.4155 24.6796C75.81 24.8611 75.2295 24.8685 74.6742 24.7015C74.1179 24.5315 73.6247 24.205 73.1946 23.7221C72.7635 23.236 72.4326 22.6082 72.2019 21.8386C71.9731 21.0754 71.9054 20.3738 71.9988 19.7339C72.0923 19.094 72.3265 18.5512 72.7016 18.1053C73.0766 17.6594 73.5701 17.3447 74.1819 17.1613C74.655 17.0194 75.0524 16.9862 75.3741 17.0616C75.698 17.133 75.9622 17.2462 76.1669 17.4014C76.3737 17.5525 76.5371 17.6788 76.6569 17.7804L76.7515 17.752L75.6792 14.1755L76.7957 13.8407L79.7007 23.5296L78.622 23.853L78.2873 22.7365L78.1548 22.7762C78.1125 22.9333 78.046 23.1354 77.9551 23.3827C77.8633 23.6267 77.7007 23.8697 77.4673 24.1116C77.2329 24.3503 76.8823 24.5396 76.4155 24.6796ZM76.2662 23.6312C76.7141 23.497 77.0575 23.2668 77.2967 22.9407C77.5348 22.6115 77.6719 22.2146 77.7079 21.7501C77.743 21.2824 77.6783 20.7741 77.5137 20.2254C77.3511 19.6829 77.1299 19.2319 76.8502 18.8723C76.5696 18.5096 76.2407 18.261 75.8635 18.1266C75.4854 17.989 75.0693 17.9883 74.6151 18.1245C74.142 18.2663 73.7842 18.506 73.5416 18.8434C73.3012 19.1767 73.1642 19.5736 73.1303 20.034C73.0987 20.4904 73.1595 20.974 73.3127 21.485C73.4678 22.0022 73.6876 22.4485 73.972 22.8238C74.2586 23.1951 74.5954 23.4585 74.9823 23.614C75.3715 23.7654 75.7994 23.7712 76.2662 23.6312Z" fill="white"/>
<path d="M90.4844 15.6517L89.4873 16.0874C89.3983 15.9235 89.2791 15.7687 89.1295 15.623C88.9827 15.4736 88.7943 15.3599 88.5643 15.2817C88.3342 15.2036 88.0512 15.1875 87.7152 15.2336C87.2552 15.2966 86.8865 15.4552 86.6089 15.7092C86.3341 15.9596 86.2189 16.2462 86.2631 16.5692C86.3025 16.8562 86.4379 17.0687 86.6695 17.2064C86.9011 17.3442 87.2463 17.4381 87.7051 17.4882L88.8583 17.6093C89.5527 17.6804 90.0876 17.8613 90.4632 18.1521C90.8382 18.4397 91.0618 18.8461 91.1337 19.3713C91.1928 19.8019 91.1216 20.2038 90.9201 20.5771C90.722 20.9499 90.4161 21.2643 90.0025 21.5204C89.589 21.7765 89.0902 21.9445 88.5063 22.0246C87.7397 22.1296 87.0824 22.0502 86.5344 21.7863C85.9865 21.5224 85.6018 21.0799 85.3804 20.4589L86.4389 20.0347C86.5988 20.4249 86.8377 20.7012 87.1558 20.8637C87.4771 21.0257 87.8742 21.0743 88.3472 21.0094C88.8855 20.9357 89.2972 20.7629 89.5823 20.4912C89.8703 20.2158 89.9921 19.9166 89.9479 19.5937C89.9121 19.3327 89.7908 19.1266 89.584 18.9755C89.3767 18.8211 89.0778 18.7258 88.6873 18.6896L87.3945 18.5677C86.6838 18.4989 86.1435 18.3154 85.7736 18.0171C85.4065 17.7152 85.1875 17.3048 85.1164 16.7862C85.0583 16.3621 85.1259 15.9706 85.3193 15.6118C85.516 15.2525 85.8088 14.9515 86.1976 14.7087C86.5897 14.4656 87.0499 14.3078 87.5784 14.2354C88.3222 14.1334 88.9284 14.2165 89.3972 14.4846C89.8693 14.7522 90.2317 15.1413 90.4844 15.6517Z" fill="white"/>
<path d="M94.459 16.6848L94.6137 21.2458L93.4488 21.2853L93.1059 11.1762L94.2708 11.1366L94.3967 14.8486L94.4955 14.8453C94.6599 14.4476 94.9159 14.1276 95.2635 13.8852C95.6142 13.6394 96.0874 13.5064 96.6831 13.4862C97.1997 13.4687 97.6557 13.557 98.051 13.7511C98.4463 13.942 98.758 14.246 98.9863 14.6633C99.2178 15.0771 99.3446 15.6098 99.3667 16.2614L99.5301 21.0791L98.3652 21.1186L98.2044 16.3799C98.184 15.7777 98.0119 15.3174 97.6881 14.9989C97.3675 14.677 96.9325 14.5254 96.3829 14.544C96.0012 14.557 95.6617 14.6492 95.3644 14.8207C95.0704 14.9921 94.8414 15.2354 94.6775 15.5507C94.5169 15.8658 94.4441 16.2439 94.459 16.6848Z" fill="white"/>
<path d="M104.953 21.5142C104.27 21.4626 103.683 21.2547 103.192 20.8907C102.704 20.5269 102.338 20.0419 102.094 19.4356C101.852 18.8296 101.761 18.1358 101.82 17.3544C101.88 16.5664 102.075 15.8894 102.405 15.3233C102.738 14.7575 103.173 14.3314 103.71 14.0451C104.25 13.759 104.861 13.6418 105.544 13.6935C106.227 13.7452 106.813 13.9529 107.3 14.3167C107.791 14.6807 108.157 15.1674 108.398 15.7767C108.643 16.3862 108.735 17.085 108.676 17.873C108.616 18.6544 108.42 19.3264 108.087 19.889C107.757 20.4518 107.322 20.8762 106.782 21.1622C106.246 21.4485 105.636 21.5659 104.953 21.5142ZM105.032 20.4701C105.551 20.5094 105.987 20.4087 106.342 20.1681C106.697 19.9275 106.972 19.5965 107.165 19.1753C107.359 18.7541 107.475 18.2907 107.513 17.7851C107.552 17.2794 107.507 16.8022 107.379 16.3534C107.251 15.9045 107.03 15.5328 106.715 15.2383C106.401 14.9437 105.984 14.7768 105.465 14.7376C104.947 14.6983 104.51 14.8007 104.154 15.0446C103.799 15.2885 103.525 15.6227 103.331 16.0472C103.137 16.4717 103.021 16.9367 102.982 17.4423C102.944 17.948 102.989 18.4236 103.117 18.8691C103.245 19.3147 103.467 19.6831 103.781 19.9744C104.096 20.2656 104.513 20.4309 105.032 20.4701Z" fill="white"/>
<path d="M113.409 22.6232C112.736 22.4966 112.176 22.2253 111.728 21.8094C111.283 21.394 110.973 20.8716 110.797 20.242C110.623 19.6131 110.609 18.9135 110.754 18.1434C110.9 17.3668 111.169 16.7154 111.559 16.1891C111.953 15.6635 112.432 15.288 112.997 15.0626C113.566 14.8379 114.186 14.7888 114.859 14.9154C115.532 15.0421 116.091 15.3131 116.536 15.7284C116.983 16.1443 117.294 16.6684 117.466 17.3006C117.642 17.9334 117.657 18.6381 117.511 19.4147C117.366 20.1848 117.097 20.8311 116.704 21.3535C116.314 21.8765 115.835 22.2504 115.266 22.4752C114.701 22.7005 114.082 22.7499 113.409 22.6232ZM113.603 21.5942C114.114 21.6904 114.559 21.6385 114.939 21.4385C115.318 21.2385 115.627 20.9399 115.866 20.5426C116.105 20.1453 116.271 19.6975 116.365 19.1992C116.459 18.7008 116.467 18.2216 116.389 17.7614C116.312 17.3012 116.133 16.9074 115.853 16.5799C115.573 16.2525 115.177 16.0406 114.666 15.9444C114.154 15.8482 113.709 15.9018 113.329 16.105C112.949 16.3082 112.639 16.6101 112.4 17.0107C112.16 17.4112 111.993 17.8606 111.9 18.3589C111.806 18.8573 111.798 19.3349 111.876 19.7919C111.954 20.2488 112.134 20.6394 112.415 20.9636C112.695 21.2878 113.091 21.498 113.603 21.5942Z" fill="white"/>
<path d="M123.961 17.2278L123.696 18.1794L119.909 17.1242L120.174 16.1727L123.961 17.2278ZM121.766 14.7294L122.888 15.0422L120.948 22.0075C120.859 22.3247 120.839 22.5754 120.887 22.7596C120.939 22.9416 121.03 23.0798 121.161 23.1744C121.296 23.2667 121.446 23.3358 121.611 23.3817C121.735 23.4162 121.838 23.4381 121.921 23.4475C122.004 23.4538 122.071 23.4588 122.122 23.4625L122.069 24.5348C121.985 24.5421 121.871 24.5411 121.726 24.5316C121.581 24.5253 121.404 24.493 121.194 24.4347C120.877 24.3463 120.585 24.1915 120.319 23.9703C120.056 23.75 119.863 23.4724 119.741 23.1376C119.622 22.8037 119.622 22.4242 119.74 21.9992L121.766 14.7294Z" fill="white"/>
<path d="M131.774 17.3311L128.062 26.7403L126.978 26.3125L130.69 16.9033L131.774 17.3311Z" fill="white"/>
<path d="M130.162 27.621L133.255 20.694L134.319 21.1692L131.226 28.0962L130.162 27.621ZM134.312 19.7811C134.104 19.6885 133.957 19.5379 133.87 19.3295C133.785 19.1224 133.787 18.9197 133.876 18.7212C133.965 18.5228 134.114 18.3858 134.325 18.3103C134.538 18.2361 134.748 18.2453 134.956 18.338C135.163 18.4306 135.309 18.5805 135.393 18.7875C135.481 18.996 135.48 19.1994 135.391 19.3978C135.303 19.5963 135.152 19.7326 134.938 19.8068C134.728 19.8823 134.519 19.8737 134.312 19.7811Z" fill="white"/>
<path d="M135.655 27.1492L136.317 25.8676L136.526 25.9792L141.045 24.5616L142.317 25.2406L137.514 26.7302L137.426 26.6837L135.655 27.1492ZM133.394 29.0777L138.157 20.1541L139.185 20.7029L134.423 29.6265L133.394 29.0777ZM137.647 31.3473L136.8 26.6406L137.914 26.3167L138.954 32.045L137.647 31.3473Z" fill="white"/>
<path d="M142.638 34.6726C142.031 34.2648 141.598 33.7791 141.338 33.2156C141.083 32.6511 140.999 32.0472 141.086 31.4037C141.178 30.7593 141.441 30.1147 141.875 29.4698C142.308 28.8249 142.808 28.3355 143.373 28.0016C143.944 27.6669 144.533 27.5038 145.142 27.5126C145.756 27.5204 146.347 27.7154 146.915 28.0975C147.243 28.3179 147.53 28.5903 147.777 28.9145C148.023 29.2387 148.194 29.612 148.291 30.0343C148.39 30.4538 148.382 30.9168 148.268 31.4232C148.154 31.9296 147.899 32.4765 147.504 33.064L147.229 33.4739L142.376 30.2114L142.938 29.3753L146.807 31.9764C147.046 31.6212 147.188 31.2565 147.233 30.8822C147.281 30.5098 147.23 30.1557 147.079 29.82C146.93 29.4861 146.681 29.2016 146.331 28.9665C145.946 28.7074 145.548 28.579 145.138 28.581C144.733 28.5822 144.353 28.6839 143.999 28.8862C143.644 29.0885 143.351 29.3632 143.117 29.7102L142.743 30.2676C142.423 30.7431 142.234 31.2013 142.176 31.6421C142.122 32.0821 142.185 32.4874 142.364 32.8579C142.545 33.2257 142.831 33.541 143.222 33.8037C143.476 33.9745 143.73 34.0933 143.982 34.16C144.24 34.2258 144.492 34.2369 144.74 34.1931C144.989 34.1465 145.228 34.0415 145.457 33.878L146.216 34.7686C145.904 35.0194 145.551 35.187 145.158 35.2714C144.765 35.3529 144.354 35.3459 143.922 35.2502C143.492 35.1517 143.064 34.9592 142.638 34.6726Z" fill="white"/>
<path d="M151.513 41.6833C151.161 41.3563 150.903 40.9932 150.739 40.594C150.577 40.1923 150.529 39.7864 150.595 39.3762C150.663 38.9636 150.866 38.5762 151.201 38.2141C151.497 37.8955 151.799 37.6954 152.109 37.6139C152.42 37.53 152.733 37.5288 153.049 37.6101C153.364 37.6915 153.674 37.822 153.979 38.0016C154.289 38.181 154.588 38.3737 154.878 38.5795C155.256 38.8495 155.56 39.0711 155.79 39.2442C156.025 39.4171 156.217 39.5206 156.365 39.5547C156.515 39.591 156.654 39.5403 156.782 39.4027L156.809 39.3738C157.14 39.0165 157.3 38.6482 157.288 38.2689C157.279 37.8918 157.077 37.5208 156.684 37.1557C156.276 36.7773 155.873 36.5699 155.476 36.5335C155.078 36.4972 154.738 36.5367 154.456 36.6522L153.914 35.6101C154.372 35.4065 154.809 35.3225 155.225 35.3582C155.646 35.3937 156.035 35.5072 156.391 35.6989C156.753 35.8904 157.073 36.116 157.353 36.3757C157.532 36.5415 157.717 36.7535 157.908 37.0119C158.104 37.2702 158.251 37.5653 158.347 37.8972C158.446 38.2313 158.445 38.5971 158.346 38.9946C158.247 39.392 157.992 39.8116 157.583 40.2534L154.183 43.9177L153.329 43.1249L154.027 42.3718L153.984 42.3315C153.814 42.3984 153.598 42.438 153.335 42.4502C153.072 42.4624 152.784 42.4126 152.47 42.3009C152.156 42.1892 151.837 41.9833 151.513 41.6833ZM152.356 41.0366C152.694 41.3501 153.04 41.5479 153.395 41.6302C153.752 41.7146 154.088 41.7067 154.401 41.6064C154.716 41.5084 154.981 41.3435 155.196 41.1118L155.922 40.3297C155.845 40.3395 155.729 40.3054 155.572 40.2274C155.42 40.1493 155.252 40.0496 155.068 39.9283C154.889 39.8069 154.715 39.6864 154.548 39.5669C154.385 39.4472 154.252 39.3508 154.149 39.2778C153.9 39.1008 153.649 38.9552 153.395 38.8413C153.146 38.7271 152.903 38.6792 152.666 38.6974C152.434 38.7154 152.217 38.833 152.016 39.0503C151.74 39.3472 151.642 39.6736 151.72 40.0294C151.804 40.3851 152.015 40.7208 152.356 41.0366Z" fill="white"/>
<path d="M156.247 50.3209L164.472 43.9045L165.164 44.7923L164.214 45.5336L164.299 45.6427C164.456 45.6291 164.661 45.6193 164.915 45.6131C165.174 45.6076 165.455 45.6681 165.758 45.7947C166.066 45.9219 166.372 46.1802 166.676 46.5696C167.069 47.0732 167.29 47.6153 167.337 48.196C167.385 48.7767 167.262 49.355 166.968 49.931C166.674 50.507 166.213 51.04 165.585 51.5302C164.952 52.0244 164.319 52.345 163.686 52.4921C163.056 52.6371 162.464 52.6181 161.912 52.435C161.363 52.2498 160.893 51.908 160.505 51.4096C160.205 51.0254 160.028 50.6681 159.975 50.3378C159.925 50.0055 159.933 49.7132 159.999 49.461C160.068 49.2068 160.131 49.0034 160.187 48.8508L160.126 48.773L156.964 51.2399L156.247 50.3209ZM162.186 47.1411C161.734 47.4936 161.387 47.8707 161.145 48.2724C160.906 48.6722 160.788 49.0752 160.792 49.4815C160.798 49.8858 160.945 50.2723 161.233 50.6409C161.533 51.0251 161.884 51.2667 162.287 51.3658C162.695 51.4653 163.122 51.4454 163.568 51.3058C164.019 51.1668 164.458 50.9312 164.884 50.599C165.304 50.2709 165.633 49.9103 165.869 49.5172C166.11 49.1247 166.227 48.7217 166.222 48.3081C166.222 47.8952 166.069 47.494 165.766 47.1046C165.474 46.7308 165.134 46.4906 164.746 46.384C164.361 46.2754 163.949 46.2879 163.51 46.4214C163.074 46.5529 162.632 46.7928 162.186 47.1411Z" fill="white"/>
<path d="M163.7 55.5454L170.075 51.4336L170.685 52.3799L169.722 53.001L169.765 53.0674C170.155 52.9802 170.547 53.0254 170.94 53.203C171.333 53.3807 171.652 53.6605 171.898 54.0423C171.945 54.1143 172.001 54.2051 172.068 54.3148C172.135 54.4245 172.184 54.5088 172.214 54.5677L171.218 55.2102C171.204 55.1716 171.168 55.0875 171.108 54.9578C171.052 54.8291 170.982 54.6997 170.899 54.5697C170.699 54.2597 170.455 54.025 170.168 53.8654C169.886 53.7067 169.585 53.63 169.267 53.6352C168.954 53.6414 168.653 53.7373 168.366 53.9229L164.331 56.5249L163.7 55.5454Z" fill="white"/>
<path d="M167.778 62.7114C167.459 62.1055 167.323 61.4979 167.371 60.8886C167.42 60.2822 167.636 59.7143 168.019 59.1847C168.404 58.6581 168.944 58.2122 169.637 57.847C170.336 57.4787 171.013 57.284 171.668 57.2627C172.325 57.2444 172.917 57.3865 173.445 57.689C173.974 57.9945 174.398 58.4502 174.717 59.0561C175.037 59.6621 175.172 60.2682 175.123 60.8746C175.075 61.4839 174.857 62.0526 174.469 62.5807C174.083 63.1118 173.54 63.5614 172.841 63.9297C172.148 64.295 171.474 64.486 170.821 64.5028C170.169 64.5225 169.578 64.3796 169.049 64.0741C168.521 63.7716 168.097 63.3174 167.778 62.7114ZM168.705 62.2234C168.947 62.6837 169.264 63.0003 169.657 63.1731C170.049 63.346 170.476 63.4025 170.935 63.3427C171.395 63.2829 171.849 63.1348 172.298 62.8985C172.746 62.6622 173.127 62.3706 173.439 62.0237C173.751 61.6769 173.949 61.292 174.031 60.869C174.113 60.446 174.033 60.0044 173.791 59.5441C173.549 59.0838 173.23 58.768 172.834 58.5967C172.439 58.4254 172.01 58.3704 171.547 58.4318C171.084 58.4931 170.629 58.642 170.18 58.8783C169.732 59.1146 169.353 59.4054 169.043 59.7507C168.734 60.096 168.539 60.4794 168.46 60.9008C168.381 61.3223 168.462 61.7631 168.705 62.2234Z" fill="white"/>
<path d="M178.595 67.6908L177.684 68.0744L176.096 64.3058L177.007 63.9222L178.595 67.6908ZM170.491 67.9968L178.447 64.6444C178.848 64.4756 179.221 64.429 179.567 64.5047C179.914 64.5803 180.217 64.7401 180.477 64.9843C180.737 65.2284 180.937 65.5174 181.078 65.8511C181.189 66.1151 181.259 66.3395 181.287 66.5243C181.315 66.709 181.328 66.8501 181.326 66.9473L180.267 67.0291C180.262 66.9668 180.253 66.8814 180.239 66.7728C180.227 66.6672 180.188 66.537 180.123 66.3823C179.973 66.0273 179.776 65.8086 179.53 65.7263C179.286 65.6469 178.991 65.6802 178.645 65.8259L170.944 69.071L170.491 67.9968Z" fill="white"/>
<path d="M173.01 75.1376C172.784 74.4425 172.743 73.793 172.886 73.189C173.033 72.5872 173.339 72.06 173.804 71.6073C174.274 71.1567 174.879 70.8113 175.618 70.5709C176.356 70.3305 177.052 70.2533 177.703 70.3393C178.358 70.4273 178.923 70.6626 179.397 71.0451C179.875 71.4296 180.22 71.9476 180.432 72.5988C180.554 72.9746 180.612 73.366 180.606 73.7731C180.6 74.1802 180.505 74.5798 180.321 74.9721C180.14 75.3633 179.849 75.723 179.446 76.0512C179.044 76.3794 178.507 76.653 177.833 76.872L177.364 77.0248L175.555 71.4638L176.513 71.1522L177.955 75.5859C178.362 75.4535 178.699 75.2539 178.965 74.9872C179.233 74.7236 179.41 74.4131 179.498 74.0555C179.587 73.7011 179.567 73.3235 179.436 72.9227C179.293 72.4812 179.059 72.1349 178.735 71.8837C178.415 71.6346 178.053 71.4804 177.65 71.4213C177.246 71.3621 176.845 71.3972 176.448 71.5266L175.809 71.7343C175.264 71.9115 174.833 72.1557 174.515 72.4668C174.202 72.78 174.001 73.1378 173.914 73.5401C173.83 73.9414 173.86 74.366 174.006 74.8137C174.101 75.1049 174.227 75.3547 174.385 75.5631C174.547 75.7735 174.739 75.9379 174.961 76.0561C175.186 76.1733 175.439 76.2382 175.72 76.2506L175.768 77.4192C175.368 77.4247 174.987 77.3391 174.625 77.1626C174.266 76.9851 173.946 76.7255 173.665 76.3841C173.388 76.0416 173.169 75.6261 173.01 75.1376Z" fill="white"/>
<path d="M181.508 84.015L180.997 83.0544C181.153 82.9531 181.299 82.8223 181.432 82.662C181.57 82.5041 181.669 82.3075 181.729 82.0721C181.789 81.8367 181.783 81.5533 181.712 81.2218C181.613 80.7681 181.427 80.4126 181.152 80.1555C180.881 79.9008 180.587 79.808 180.268 79.877C179.985 79.9383 179.783 80.0898 179.664 80.3313C179.544 80.5728 179.477 80.9242 179.463 81.3855L179.431 82.5446C179.414 83.2424 179.274 83.7897 179.013 84.1865C178.756 84.5826 178.368 84.8368 177.849 84.949C177.425 85.041 177.018 85.001 176.631 84.8289C176.244 84.6601 175.907 84.3794 175.62 83.9867C175.332 83.5941 175.126 83.1098 175.002 82.5338C174.838 81.7776 174.866 81.1161 175.087 80.5494C175.308 79.9828 175.72 79.5652 176.322 79.2966L176.826 80.3193C176.45 80.5087 176.193 80.7682 176.055 81.0978C175.918 81.4307 175.9 81.8304 176.002 82.297C176.117 82.828 176.32 83.2251 176.613 83.4885C176.91 83.7544 177.218 83.8528 177.536 83.7838C177.794 83.728 177.99 83.5912 178.125 83.3734C178.263 83.1548 178.335 82.8495 178.341 82.4574L178.363 81.1589C178.376 80.4451 178.518 79.8923 178.787 79.5005C179.059 79.1112 179.452 78.8612 179.963 78.7504C180.382 78.6597 180.777 78.697 181.15 78.8622C181.523 79.0307 181.846 79.2994 182.118 79.6683C182.391 80.0405 182.583 80.4872 182.696 81.0085C182.855 81.7422 182.819 82.3531 182.588 82.8412C182.357 83.3324 181.997 83.7237 181.508 84.015Z" fill="white"/>
<path d="M182.577 92.0478L182.16 91.0425C182.326 90.9567 182.483 90.8405 182.632 90.6937C182.784 90.5498 182.901 90.3636 182.984 90.1351C183.066 89.9066 183.088 89.6239 183.048 89.2871C182.994 88.826 182.842 88.4543 182.594 88.1719C182.349 87.8924 182.064 87.7716 181.74 87.8097C181.453 87.8435 181.238 87.9749 181.096 88.2038C180.953 88.4327 180.853 88.776 180.794 89.2338L180.651 90.3845C180.566 91.0774 180.375 91.6087 180.077 91.9786C179.783 92.3481 179.372 92.5638 178.845 92.6257C178.414 92.6764 178.013 92.5975 177.644 92.389C177.275 92.1837 176.967 91.8719 176.718 91.4535C176.47 91.0351 176.312 90.5332 176.243 89.9479C176.153 89.1794 176.245 88.5237 176.519 87.9809C176.793 87.4381 177.243 87.062 177.868 86.8526L178.272 87.919C177.879 88.0714 177.598 88.305 177.43 88.6198C177.262 88.938 177.205 89.3341 177.261 89.8083C177.324 90.3479 177.489 90.7628 177.756 91.0531C178.025 91.3463 178.322 91.4738 178.646 91.4358C178.908 91.405 179.116 91.2877 179.271 91.0838C179.429 90.8795 179.53 90.5825 179.574 90.1928L179.721 88.9025C179.803 88.1933 179.997 87.6566 180.302 87.2925C180.611 86.9313 181.026 86.7201 181.546 86.659C181.971 86.609 182.361 86.6842 182.716 86.8844C183.071 87.088 183.367 87.3865 183.602 87.7798C183.837 88.1765 183.986 88.6397 184.049 89.1695C184.136 89.9151 184.042 90.5196 183.765 90.9832C183.488 91.45 183.092 91.8049 182.577 92.0478Z" fill="white"/>
<path d="M176.827 94.8435L184.405 94.49L184.459 95.6544L176.881 96.0078L176.827 94.8435ZM185.695 95.0232C185.685 94.7962 185.753 94.5969 185.9 94.4253C186.047 94.2569 186.229 94.1676 186.446 94.1575C186.663 94.1474 186.853 94.2193 187.015 94.3733C187.177 94.5305 187.264 94.7226 187.274 94.9495C187.285 95.1765 187.217 95.3741 187.07 95.5425C186.923 95.7142 186.741 95.8051 186.524 95.8152C186.306 95.8253 186.117 95.7518 185.955 95.5945C185.792 95.4406 185.706 95.2501 185.695 95.0232Z" fill="white"/>
<path d="M176.747 101.432C176.768 100.747 176.949 100.151 177.291 99.6447C177.632 99.1412 178.1 98.7536 178.695 98.4819C179.29 98.2134 179.978 98.0912 180.762 98.1151C181.552 98.1392 182.237 98.3034 182.817 98.6077C183.397 98.9153 183.843 99.3308 184.153 99.8541C184.463 100.381 184.607 100.986 184.586 101.671C184.566 102.355 184.384 102.949 184.043 103.453C183.701 103.96 183.232 104.347 182.634 104.616C182.036 104.887 181.342 105.011 180.552 104.987C179.769 104.963 179.089 104.797 178.512 104.49C177.935 104.186 177.491 103.77 177.181 103.243C176.871 102.72 176.726 102.116 176.747 101.432ZM177.794 101.464C177.778 101.984 177.898 102.415 178.154 102.759C178.411 103.103 178.754 103.362 179.183 103.537C179.613 103.711 180.081 103.806 180.588 103.822C181.094 103.837 181.569 103.771 182.012 103.623C182.454 103.475 182.816 103.238 183.096 102.91C183.376 102.583 183.524 102.159 183.54 101.639C183.556 101.119 183.434 100.687 183.174 100.343C182.915 99.9992 182.568 99.7399 182.136 99.5653C181.703 99.3906 181.233 99.2956 180.726 99.2801C180.219 99.2646 179.746 99.3309 179.307 99.4789C178.868 99.6269 178.509 99.8647 178.233 100.192C177.956 100.52 177.809 100.944 177.794 101.464Z" fill="white"/>
<path d="M180.96 108.719L176.441 108.08L176.604 106.926L184.116 107.988L183.958 109.103L182.785 108.937L182.771 109.034C183.127 109.264 183.396 109.575 183.577 109.966C183.761 110.358 183.813 110.838 183.733 111.405C183.661 111.914 183.494 112.344 183.231 112.696C182.972 113.048 182.617 113.301 182.166 113.453C181.719 113.606 181.176 113.638 180.537 113.547L175.764 112.873L175.927 111.719L180.622 112.382C181.212 112.465 181.693 112.377 182.066 112.117C182.442 111.858 182.667 111.461 182.743 110.926C182.795 110.558 182.762 110.217 182.643 109.904C182.524 109.595 182.323 109.335 182.04 109.126C181.757 108.916 181.397 108.78 180.96 108.719Z" fill="white"/>
<path d="M174.577 117.358C174.694 116.892 174.888 116.491 175.16 116.156C175.434 115.821 175.767 115.584 176.159 115.444C176.553 115.306 176.99 115.297 177.469 115.418C177.891 115.524 178.211 115.693 178.431 115.925C178.655 116.158 178.806 116.432 178.886 116.747C178.967 117.063 179.001 117.397 178.99 117.751C178.982 118.109 178.957 118.464 178.916 118.817C178.861 119.279 178.812 119.652 178.771 119.937C178.732 120.226 178.734 120.444 178.775 120.59C178.815 120.739 178.927 120.837 179.109 120.883L179.147 120.892C179.62 121.011 180.019 120.974 180.346 120.782C180.672 120.592 180.901 120.237 181.032 119.717C181.168 119.177 181.156 118.724 180.997 118.358C180.838 117.992 180.64 117.713 180.403 117.521L181.056 116.545C181.455 116.849 181.739 117.192 181.907 117.574C182.078 117.96 182.166 118.355 182.169 118.76C182.175 119.169 182.131 119.559 182.038 119.929C181.978 120.165 181.881 120.429 181.747 120.722C181.614 121.018 181.426 121.288 181.181 121.532C180.936 121.779 180.615 121.954 180.218 122.058C179.822 122.162 179.332 122.141 178.748 121.994L173.901 120.774L174.185 119.643L175.181 119.894L175.196 119.837C175.055 119.72 174.917 119.549 174.78 119.325C174.643 119.1 174.548 118.823 174.495 118.494C174.442 118.165 174.469 117.786 174.577 117.358ZM175.549 117.786C175.436 118.233 175.429 118.632 175.528 118.983C175.625 119.337 175.793 119.627 176.032 119.854C176.269 120.083 176.542 120.237 176.848 120.314L177.883 120.574C177.837 120.512 177.811 120.393 177.804 120.218C177.8 120.047 177.806 119.852 177.824 119.632C177.844 119.417 177.867 119.207 177.891 119.002C177.918 118.802 177.938 118.639 177.953 118.514C177.989 118.21 177.995 117.92 177.973 117.643C177.954 117.37 177.879 117.134 177.749 116.935C177.622 116.74 177.415 116.606 177.127 116.534C176.734 116.435 176.401 116.505 176.127 116.745C175.855 116.989 175.662 117.336 175.549 117.786Z" fill="white"/>
<path d="M182.405 127.256L172.808 124.061L173.176 122.955L182.773 126.15L182.405 127.256Z" fill="white"/>
<path d="M173.154 135.929L172.17 135.47L174.041 131.459L175.025 131.919L173.154 135.929Z" fill="white"/>
<path d="M173.655 145.676L165.044 140.369L165.656 139.377L174.267 144.683L173.655 145.676Z" fill="white"/>
<path d="M161.791 144.893C162.221 144.302 162.723 143.887 163.295 143.648C163.869 143.413 164.475 143.352 165.115 143.463C165.756 143.578 166.39 143.864 167.019 144.321C167.647 144.778 168.118 145.296 168.431 145.873C168.745 146.455 168.886 147.051 168.855 147.659C168.824 148.272 168.608 148.855 168.205 149.409C167.973 149.729 167.69 150.006 167.357 150.24C167.024 150.474 166.644 150.632 166.219 150.713C165.796 150.797 165.334 150.772 164.832 150.639C164.33 150.506 163.793 150.232 163.22 149.815L162.821 149.525L166.259 144.795L167.074 145.388L164.333 149.159C164.679 149.41 165.038 149.566 165.41 149.625C165.781 149.686 166.137 149.648 166.478 149.509C166.817 149.373 167.11 149.134 167.358 148.794C167.631 148.418 167.774 148.025 167.787 147.616C167.801 147.21 167.713 146.827 167.524 146.466C167.335 146.104 167.071 145.801 166.733 145.555L166.19 145.16C165.726 144.823 165.275 144.617 164.837 144.543C164.399 144.473 163.992 144.521 163.615 144.686C163.241 144.854 162.915 145.128 162.638 145.509C162.458 145.757 162.33 146.005 162.254 146.255C162.179 146.51 162.159 146.762 162.193 147.011C162.231 147.262 162.327 147.505 162.482 147.74L161.564 148.465C161.325 148.144 161.17 147.786 161.101 147.389C161.033 146.994 161.056 146.583 161.167 146.155C161.281 145.729 161.489 145.309 161.791 144.893Z" fill="white"/>
<path d="M157.12 150.665C157.442 150.308 157.802 150.044 158.199 149.875C158.598 149.707 159.003 149.654 159.414 149.714C159.828 149.777 160.218 149.973 160.585 150.304C160.908 150.595 161.112 150.895 161.198 151.203C161.286 151.513 161.292 151.826 161.215 152.142C161.138 152.459 161.012 152.771 160.836 153.078C160.661 153.39 160.473 153.693 160.271 153.985C160.007 154.367 159.789 154.674 159.619 154.907C159.45 155.144 159.349 155.337 159.317 155.486C159.283 155.637 159.335 155.775 159.475 155.901L159.504 155.927C159.866 156.253 160.237 156.408 160.616 156.391C160.993 156.376 161.361 156.169 161.72 155.771C162.093 155.358 162.295 154.952 162.325 154.554C162.356 154.156 162.312 153.817 162.192 153.536L163.227 152.979C163.437 153.435 163.527 153.871 163.497 154.287C163.468 154.708 163.359 155.099 163.173 155.458C162.986 155.822 162.765 156.146 162.51 156.429C162.346 156.61 162.137 156.798 161.881 156.993C161.626 157.193 161.333 157.343 161.002 157.444C160.669 157.548 160.304 157.553 159.905 157.459C159.506 157.365 159.083 157.117 158.635 156.713L154.924 153.366L155.704 152.5L156.467 153.188L156.507 153.144C156.438 152.975 156.395 152.759 156.379 152.497C156.363 152.234 156.409 151.945 156.516 151.63C156.624 151.314 156.825 150.992 157.12 150.665ZM157.779 151.498C157.47 151.84 157.277 152.189 157.2 152.545C157.121 152.904 157.133 153.239 157.238 153.551C157.34 153.865 157.509 154.128 157.744 154.339L158.536 155.054C158.525 154.977 158.557 154.86 158.633 154.703C158.709 154.549 158.807 154.38 158.925 154.194C159.044 154.013 159.162 153.838 159.279 153.669C159.397 153.505 159.491 153.37 159.563 153.266C159.736 153.015 159.878 152.762 159.989 152.506C160.099 152.256 160.144 152.012 160.122 151.776C160.101 151.544 159.98 151.328 159.76 151.13C159.459 150.859 159.132 150.765 158.777 150.848C158.423 150.937 158.09 151.153 157.779 151.498Z" fill="white"/>
<path d="M153.257 154.981L158.419 160.541L157.593 161.307L156.814 160.467L156.756 160.521C156.91 160.89 156.934 161.284 156.827 161.701C156.721 162.119 156.501 162.483 156.168 162.792C156.106 162.85 156.026 162.922 155.93 163.007C155.833 163.092 155.759 163.154 155.706 163.194L154.9 162.325C154.935 162.306 155.012 162.255 155.129 162.173C155.246 162.096 155.361 162.005 155.475 161.899C155.745 161.648 155.933 161.368 156.04 161.057C156.147 160.751 156.17 160.442 156.11 160.13C156.049 159.823 155.902 159.543 155.669 159.293L152.403 155.775L153.257 154.981Z" fill="white"/>
<path d="M150.987 163.092L148.196 159.481L149.119 158.768L153.757 164.77L152.866 165.459L152.142 164.521L152.063 164.582C152.158 164.995 152.134 165.405 151.99 165.812C151.849 166.221 151.551 166.6 151.098 166.951C150.691 167.265 150.271 167.456 149.838 167.525C149.406 167.596 148.976 167.529 148.547 167.324C148.119 167.122 147.709 166.765 147.314 166.254L144.366 162.44L145.289 161.727L148.188 165.479C148.552 165.951 148.959 166.223 149.407 166.297C149.857 166.374 150.296 166.247 150.723 165.917C151.018 165.689 151.232 165.422 151.365 165.115C151.495 164.81 151.532 164.484 151.476 164.137C151.42 163.789 151.257 163.441 150.987 163.092Z" fill="white"/>
<path d="M136.907 166.881C137.329 166.651 137.755 166.521 138.186 166.492C138.618 166.466 139.018 166.55 139.386 166.743C139.756 166.938 140.059 167.253 140.296 167.686C140.504 168.068 140.598 168.418 140.577 168.737C140.558 169.059 140.46 169.357 140.282 169.63C140.105 169.903 139.883 170.156 139.616 170.388C139.348 170.624 139.07 170.847 138.783 171.057C138.407 171.33 138.1 171.548 137.863 171.711C137.624 171.879 137.465 172.028 137.386 172.157C137.304 172.289 137.308 172.437 137.398 172.601L137.417 172.636C137.65 173.064 137.949 173.332 138.312 173.441C138.673 173.552 139.089 173.478 139.56 173.221C140.048 172.954 140.373 172.638 140.533 172.273C140.694 171.908 140.764 171.573 140.744 171.268L141.905 171.085C141.952 171.584 141.893 172.025 141.727 172.409C141.56 172.796 141.329 173.129 141.034 173.406C140.738 173.688 140.422 173.921 140.087 174.104C139.873 174.221 139.613 174.329 139.308 174.428C139 174.532 138.674 174.577 138.329 174.563C137.981 174.551 137.634 174.435 137.288 174.214C136.943 173.994 136.626 173.619 136.337 173.091L133.941 168.704L134.964 168.145L135.456 169.047L135.508 169.019C135.499 168.836 135.53 168.619 135.602 168.365C135.674 168.112 135.812 167.855 136.018 167.592C136.223 167.33 136.52 167.093 136.907 166.881ZM137.253 167.885C136.848 168.106 136.551 168.372 136.36 168.683C136.167 168.995 136.068 169.315 136.064 169.644C136.056 169.974 136.129 170.278 136.28 170.555L136.792 171.492C136.807 171.416 136.876 171.316 137 171.192C137.122 171.073 137.27 170.945 137.443 170.809C137.615 170.678 137.785 170.552 137.951 170.431C138.116 170.314 138.25 170.219 138.352 170.144C138.599 169.964 138.816 169.772 139.005 169.568C139.192 169.368 139.315 169.153 139.373 168.922C139.429 168.696 139.387 168.453 139.244 168.193C139.05 167.838 138.772 167.641 138.41 167.603C138.046 167.569 137.66 167.663 137.253 167.885Z" fill="white"/>
<path d="M132.537 174.374L130.783 170.161L131.859 169.713L134.775 176.716L133.736 177.149L133.28 176.055L133.189 176.093C133.173 176.517 133.042 176.906 132.798 177.261C132.555 177.619 132.169 177.909 131.64 178.129C131.166 178.326 130.71 178.402 130.274 178.355C129.838 178.312 129.44 178.135 129.079 177.825C128.72 177.519 128.416 177.067 128.168 176.472L126.315 172.022L127.391 171.574L129.213 175.951C129.442 176.501 129.764 176.87 130.177 177.058C130.592 177.249 131.049 177.241 131.547 177.033C131.891 176.89 132.167 176.688 132.375 176.426C132.581 176.166 132.702 175.861 132.738 175.51C132.774 175.16 132.707 174.781 132.537 174.374Z" fill="white"/>
<path d="M121.223 173.501C121.83 173.323 122.41 173.319 122.965 173.49C123.52 173.663 124.011 173.993 124.438 174.479C124.866 174.968 125.193 175.597 125.418 176.369C125.642 177.133 125.705 177.835 125.608 178.474C125.51 179.114 125.273 179.655 124.895 180.099C124.517 180.542 124.021 180.854 123.408 181.033C122.934 181.172 122.537 181.202 122.216 181.125C121.892 181.052 121.629 180.937 121.425 180.78C121.219 180.628 121.056 180.5 120.937 180.398L120.843 180.426L121.892 184.009L120.773 184.337L117.931 174.629L119.011 174.313L119.339 175.432L119.472 175.393C119.515 175.236 119.583 175.034 119.675 174.788C119.769 174.544 119.933 174.302 120.168 174.062C120.404 173.825 120.755 173.637 121.223 173.501ZM121.366 174.55C120.917 174.681 120.572 174.909 120.331 175.234C120.091 175.561 119.951 175.957 119.912 176.422C119.874 176.889 119.935 177.398 120.096 177.948C120.255 178.491 120.474 178.944 120.751 179.305C121.029 179.669 121.357 179.92 121.733 180.057C122.11 180.197 122.526 180.2 122.981 180.067C123.455 179.928 123.815 179.691 124.059 179.355C124.302 179.023 124.442 178.627 124.478 178.167C124.513 177.711 124.455 177.227 124.305 176.715C124.154 176.197 123.937 175.749 123.655 175.372C123.37 174.999 123.035 174.733 122.649 174.575C122.261 174.421 121.833 174.413 121.366 174.55Z" fill="white"/>
<path d="M107.095 182.438L108.095 182.009C108.183 182.173 108.301 182.329 108.45 182.475C108.596 182.626 108.783 182.741 109.013 182.82C109.243 182.9 109.525 182.918 109.862 182.874C110.322 182.814 110.692 182.658 110.971 182.405C111.248 182.157 111.365 181.871 111.322 181.548C111.285 181.26 111.151 181.047 110.92 180.908C110.69 180.769 110.345 180.672 109.886 180.619L108.734 180.491C108.04 180.415 107.506 180.231 107.133 179.938C106.76 179.648 106.539 179.24 106.47 178.714C106.414 178.283 106.488 177.882 106.691 177.51C106.892 177.138 107.2 176.826 107.615 176.572C108.03 176.319 108.53 176.154 109.115 176.078C109.882 175.978 110.539 176.061 111.085 176.329C111.631 176.596 112.013 177.041 112.23 177.664L111.169 178.081C111.012 177.69 110.775 177.412 110.458 177.247C110.137 177.083 109.74 177.032 109.267 177.094C108.728 177.164 108.316 177.334 108.029 177.604C107.739 177.878 107.615 178.176 107.657 178.499C107.691 178.761 107.811 178.967 108.017 179.12C108.223 179.276 108.522 179.373 108.912 179.412L110.204 179.542C110.914 179.615 111.453 179.802 111.821 180.103C112.186 180.407 112.403 180.819 112.471 181.338C112.526 181.763 112.456 182.154 112.26 182.511C112.061 182.869 111.766 183.168 111.376 183.408C110.982 183.649 110.521 183.804 109.992 183.873C109.248 183.97 108.642 183.883 108.175 183.612C107.705 183.341 107.345 182.95 107.095 182.438Z" fill="white"/>
<path d="M103.129 181.379L103.004 176.817L104.169 176.785L104.447 186.896L103.282 186.928L103.18 183.215L103.081 183.218C102.914 183.615 102.656 183.933 102.307 184.173C101.954 184.417 101.48 184.547 100.885 184.563C100.368 184.577 99.9125 184.486 99.5184 184.289C99.1244 184.096 98.8146 183.79 98.589 183.371C98.3602 182.956 98.2369 182.422 98.219 181.771L98.0867 176.952L99.2519 176.92L99.382 181.66C99.3985 182.262 99.5677 182.723 99.8894 183.044C100.208 183.368 100.642 183.522 101.192 183.507C101.573 183.497 101.914 183.407 102.212 183.237C102.507 183.068 102.738 182.826 102.903 182.512C103.066 182.197 103.141 181.82 103.129 181.379Z" fill="white"/>
<path d="M92.6638 176.481C93.3464 176.538 93.9319 176.749 94.4204 177.116C94.9057 177.483 95.2686 177.971 95.5094 178.579C95.7469 179.186 95.8335 179.881 95.7693 180.662C95.7046 181.449 95.5053 182.125 95.1715 182.689C94.8344 183.252 94.3966 183.676 93.858 183.958C93.3161 184.241 92.7038 184.354 92.0213 184.298C91.3387 184.242 90.7548 184.03 90.2696 183.663C89.7811 183.296 89.4182 182.807 89.181 182.196C88.9405 181.585 88.8527 180.886 88.9174 180.098C88.9816 179.317 89.1821 178.647 89.5189 178.086C89.8524 177.526 90.2901 177.104 90.832 176.821C91.3707 176.539 91.9813 176.425 92.6638 176.481ZM92.5781 177.525C92.0596 177.482 91.622 177.58 91.2655 177.818C90.9089 178.057 90.6324 178.386 90.436 178.806C90.2396 179.226 90.1206 179.688 90.0791 180.194C90.0375 180.699 90.0792 181.177 90.2041 181.626C90.3291 182.076 90.5478 182.449 90.8604 182.746C91.173 183.042 91.5886 183.212 92.107 183.255C92.6255 183.297 93.0632 183.198 93.42 182.956C93.7769 182.715 94.0536 182.382 94.2503 181.959C94.447 181.536 94.5661 181.071 94.6076 180.566C94.6492 180.061 94.6074 179.585 94.4822 179.138C94.357 178.692 94.138 178.322 93.8251 178.029C93.5122 177.736 93.0965 177.568 92.5781 177.525Z" fill="white"/>
<path d="M84.2185 175.318C84.8907 175.449 85.4494 175.724 85.8944 176.143C86.3362 176.561 86.6433 177.085 86.8156 177.716C86.9846 178.346 86.9942 179.046 86.8443 179.815C86.6931 180.59 86.4206 181.24 86.0266 181.764C85.6295 182.287 85.1477 182.659 84.5811 182.881C84.0114 183.102 83.3904 183.147 82.7182 183.016C82.046 182.885 81.4889 182.61 81.0471 182.192C80.6021 181.773 80.2954 181.247 80.1269 180.614C79.9553 179.98 79.945 179.275 80.0962 178.5C80.2461 177.73 80.5193 177.086 80.9159 176.566C81.3091 176.046 81.7907 175.675 82.3604 175.454C82.9269 175.232 83.5463 175.187 84.2185 175.318ZM84.0182 176.345C83.5076 176.246 83.062 176.295 82.6813 176.493C82.3006 176.69 81.9895 176.987 81.748 177.382C81.5065 177.778 81.3373 178.225 81.2403 178.723C81.1433 179.22 81.1321 179.699 81.2067 180.16C81.2813 180.621 81.4575 181.016 81.7355 181.345C82.0135 181.674 82.4079 181.889 82.9185 181.988C83.4291 182.088 83.8751 182.037 84.2564 181.836C84.6377 181.636 84.9494 181.336 85.1915 180.937C85.4336 180.538 85.6032 180.089 85.7002 179.592C85.7972 179.094 85.8081 178.617 85.7329 178.159C85.6577 177.702 85.4807 177.31 85.2021 176.984C84.9235 176.658 84.5289 176.445 84.0182 176.345Z" fill="white"/>
<path d="M73.6265 180.643L73.8978 179.693L77.678 180.773L77.4066 181.723L73.6265 180.643ZM75.8056 183.156L74.6848 182.835L76.6711 175.883C76.7616 175.566 76.7835 175.316 76.7369 175.131C76.6863 174.949 76.5958 174.81 76.4656 174.715C76.3312 174.622 76.1818 174.552 76.0171 174.504C75.8937 174.469 75.7905 174.447 75.7078 174.437C75.6241 174.43 75.5572 174.424 75.507 174.42L75.5666 173.348C75.6508 173.342 75.765 173.343 75.9092 173.354C76.0544 173.361 76.2315 173.395 76.4404 173.454C76.757 173.545 77.0479 173.701 77.3129 173.924C77.5748 174.146 77.7656 174.425 77.8855 174.761C78.0022 175.096 77.9999 175.475 77.8787 175.899L75.8056 183.156Z" fill="white"/>
<path d="M65.8217 180.492L69.5943 171.107L70.6758 171.541L66.9032 180.927L65.8217 180.492Z" fill="white"/>
<path d="M67.4971 170.211L64.3594 177.118L63.2982 176.636L66.4358 169.729L67.4971 170.211ZM63.2968 178.024C63.5037 178.118 63.65 178.27 63.7359 178.479C63.8188 178.686 63.8153 178.889 63.7254 179.087C63.6356 179.285 63.4852 179.421 63.2743 179.495C63.0604 179.568 62.85 179.557 62.6431 179.463C62.4363 179.369 62.2914 179.218 62.2085 179.011C62.1227 178.802 62.1247 178.598 62.2145 178.4C62.3044 178.203 62.4563 178.067 62.6702 177.994C62.8811 177.92 63.09 177.93 63.2968 178.024Z" fill="white"/>
<path d="M61.9941 170.644L61.3242 171.921L61.1158 171.808L56.5881 173.197L55.3202 172.51L60.1331 171.051L60.22 171.098L61.9941 170.644ZM64.2674 168.73L59.4472 177.623L58.4225 177.068L63.2427 168.175L64.2674 168.73ZM60.0295 166.433L60.846 171.145L59.7306 171.462L58.7269 165.727L60.0295 166.433Z" fill="white"/>
<path d="M55.064 163.078C55.668 163.49 56.0981 163.978 56.3544 164.543C56.6061 165.109 56.6862 165.714 56.5946 166.357C56.4985 167.001 56.2316 167.644 55.7939 168.286C55.3562 168.928 54.8534 169.414 54.2856 169.744C53.7133 170.075 53.1226 170.234 52.5136 170.222C51.9 170.21 51.3102 170.011 50.7443 169.625C50.4178 169.403 50.1325 169.129 49.8884 168.803C49.6443 168.477 49.4751 168.103 49.3808 167.68C49.2847 167.26 49.2954 166.797 49.4129 166.291C49.5305 165.785 49.7886 165.24 50.1874 164.655L50.4656 164.247L55.2974 167.541L54.7299 168.373L50.8775 165.747C50.6364 166.101 50.492 166.465 50.4443 166.839C50.3939 167.211 50.4432 167.565 50.5922 167.902C50.7386 168.237 50.9858 168.523 51.3341 168.76C51.7177 169.022 52.1145 169.153 52.5246 169.153C52.93 169.155 53.3105 169.055 53.666 168.855C54.0215 168.655 54.317 168.383 54.5526 168.037L54.9309 167.482C55.2536 167.009 55.4455 166.552 55.5067 166.111C55.5633 165.672 55.5031 165.266 55.3261 164.894C55.1473 164.525 54.8633 164.208 54.4743 163.943C54.2212 163.771 53.9686 163.65 53.7163 163.582C53.4595 163.514 53.2071 163.502 52.9592 163.544C52.7094 163.589 52.4695 163.692 52.2395 163.854L51.4871 162.959C51.8002 162.71 52.1539 162.545 52.5484 162.463C52.941 162.384 53.3528 162.394 53.7837 162.492C54.2128 162.593 54.6396 162.789 55.064 163.078Z" fill="white"/>
<path d="M46.2328 156.008C46.583 156.338 46.8389 156.702 47.0004 157.103C47.1596 157.505 47.2047 157.912 47.1359 158.321C47.0648 158.734 46.8601 159.12 46.5218 159.48C46.2241 159.796 45.9204 159.994 45.6107 160.074C45.2988 160.156 44.9855 160.155 44.6708 160.071C44.3561 159.988 44.0468 159.855 43.743 159.674C43.4346 159.492 43.1363 159.298 42.848 159.09C42.4715 158.817 42.1688 158.594 41.9398 158.419C41.7061 158.245 41.5153 158.14 41.3675 158.105C41.2173 158.068 41.0779 158.117 40.9493 158.254L40.9223 158.283C40.5885 158.638 40.4263 159.005 40.4357 159.385C40.4427 159.762 40.6418 160.134 41.0328 160.502C41.4383 160.883 41.8396 161.093 42.2368 161.132C42.634 161.171 42.9741 161.134 43.2571 161.02L43.7925 162.066C43.3329 162.266 42.8951 162.347 42.4793 162.309C42.0589 162.271 41.6709 162.155 41.3155 161.961C40.9555 161.767 40.6363 161.539 40.358 161.277C40.1805 161.11 39.9968 160.897 39.8071 160.638C39.6127 160.378 39.4685 160.082 39.3743 159.749C39.2778 159.415 39.2805 159.049 39.3823 158.652C39.4842 158.255 39.7415 157.837 40.1542 157.398L43.5775 153.756L44.4268 154.555L43.7232 155.303L43.7664 155.344C43.9367 155.278 44.1533 155.24 44.4162 155.229C44.6791 155.219 44.9672 155.271 45.2806 155.384C45.5939 155.498 45.9113 155.706 46.2328 156.008ZM45.3861 156.65C45.0502 156.334 44.7051 156.134 44.3507 156.049C43.994 155.962 43.6587 155.968 43.345 156.066C43.0288 156.162 42.7625 156.325 42.546 156.556L41.8153 157.333C41.8919 157.324 42.0083 157.358 42.1645 157.437C42.316 157.517 42.4833 157.617 42.6665 157.74C42.845 157.863 43.0176 157.984 43.1844 158.105C43.3465 158.226 43.4788 158.323 43.5813 158.396C43.829 158.575 44.0793 158.722 44.3322 158.838C44.5803 158.954 44.8229 159.003 45.06 158.987C45.2924 158.97 45.5101 158.854 45.7131 158.638C45.9905 158.343 46.0911 158.017 46.0148 157.661C45.9339 157.305 45.7243 156.968 45.3861 156.65Z" fill="white"/>
<path d="M41.5613 147.346L33.2959 153.71L32.6089 152.817L33.5639 152.082L33.4795 151.973C33.3229 151.985 33.1175 151.994 32.8634 151.998C32.6046 152.002 32.3239 151.94 32.0214 151.811C31.7141 151.682 31.4099 151.422 31.1086 151.03C30.719 150.524 30.502 149.981 30.4578 149.4C30.4137 148.819 30.5404 148.241 30.8381 147.667C31.1358 147.093 31.6004 146.563 32.2318 146.077C32.8684 145.587 33.5035 145.27 34.1373 145.127C34.7684 144.986 35.3594 145.009 35.9104 145.196C36.4587 145.384 36.9257 145.729 37.3113 146.23C37.6086 146.616 37.7827 146.975 37.8336 147.305C37.8819 147.638 37.8721 147.93 37.8041 148.182C37.7336 148.436 37.6696 148.639 37.6122 148.791L37.6725 148.869L40.8503 146.423L41.5613 147.346ZM35.6025 150.488C36.0565 150.138 36.4058 149.763 36.6503 149.363C36.8923 148.965 37.0127 148.563 37.0115 148.156C37.0078 147.752 36.8633 147.365 36.5781 146.994C36.2808 146.608 35.931 146.364 35.5286 146.263C35.1217 146.16 34.6945 146.178 34.247 146.314C33.795 146.45 33.355 146.683 32.9271 147.012C32.5045 147.338 32.1738 147.696 31.935 148.088C31.6916 148.479 31.5712 148.881 31.5738 149.295C31.5718 149.708 31.7214 150.11 32.0227 150.501C32.3119 150.877 32.6502 151.119 33.0375 151.228C33.4221 151.339 33.8343 151.33 34.2739 151.199C34.7109 151.07 35.1538 150.833 35.6025 150.488Z" fill="white"/>
<path d="M34.1404 142.07L27.7385 146.14L27.1343 145.19L28.1013 144.575L28.0589 144.508C27.6679 144.593 27.2766 144.545 26.885 144.365C26.4934 144.185 26.1757 143.903 25.9319 143.519C25.886 143.447 25.83 143.356 25.7639 143.246C25.6978 143.136 25.6498 143.051 25.62 142.992L26.6203 142.356C26.6332 142.395 26.6693 142.479 26.7286 142.609C26.7833 142.738 26.8522 142.868 26.9352 142.998C27.1331 143.31 27.375 143.546 27.6611 143.708C27.9426 143.868 28.2423 143.947 28.5603 143.943C28.8737 143.939 29.1748 143.845 29.4638 143.662L33.515 141.086L34.1404 142.07Z" fill="white"/>
<path d="M30.1095 134.88C30.4248 135.488 30.5567 136.096 30.5053 136.705C30.4524 137.311 30.2324 137.878 29.8455 138.405C29.4571 138.929 28.915 139.371 28.2194 139.732C27.5178 140.096 26.8395 140.286 26.1844 140.303C25.5278 140.317 24.9366 140.171 24.4108 139.865C23.8835 139.556 23.4621 139.098 23.1469 138.49C22.8316 137.882 22.7004 137.275 22.7534 136.669C22.8048 136.06 23.0261 135.493 23.4175 134.967C23.8073 134.439 24.353 133.992 25.0545 133.629C25.7502 133.268 26.4249 133.081 27.0786 133.069C27.7307 133.053 28.3205 133.2 28.8478 133.509C29.3737 133.815 29.7942 134.272 30.1095 134.88ZM29.18 135.362C28.9405 134.9 28.6251 134.581 28.2337 134.406C27.8423 134.23 27.4166 134.171 26.9565 134.228C26.4964 134.285 26.0412 134.43 25.5911 134.663C25.141 134.897 24.7586 135.186 24.4442 135.531C24.1297 135.876 23.9299 136.259 23.8448 136.682C23.7597 137.104 23.8369 137.546 24.0764 138.008C24.3159 138.47 24.6328 138.788 25.0271 138.962C25.4213 139.135 25.85 139.193 26.313 139.135C26.7761 139.076 27.2327 138.931 27.6828 138.697C28.1329 138.464 28.5138 138.175 28.8254 137.832C29.1369 137.489 29.3338 137.107 29.416 136.686C29.4981 136.265 29.4195 135.823 29.18 135.362Z" fill="white"/>
<path d="M19.3246 129.829L20.2373 129.451L21.8009 133.23L20.8882 133.607L19.3246 129.829ZM27.4297 129.575L19.4524 132.876C19.0508 133.042 18.6771 133.086 18.3313 133.008C17.9855 132.931 17.6834 132.769 17.4249 132.523C17.1663 132.277 16.9679 131.987 16.8294 131.652C16.7198 131.388 16.6517 131.163 16.6251 130.978C16.5984 130.793 16.5864 130.652 16.5889 130.554L17.6483 130.479C17.6527 130.542 17.6614 130.627 17.6743 130.736C17.6859 130.842 17.7238 130.972 17.788 131.127C17.9353 131.483 18.1315 131.703 18.3765 131.787C18.6202 131.868 18.9154 131.837 19.2623 131.693L26.984 128.498L27.4297 129.575Z" fill="white"/>
<path d="M24.9571 122.418C25.1787 123.115 25.2161 123.765 25.0694 124.368C24.9185 124.969 24.6088 125.494 24.1403 125.944C23.6676 126.391 23.0611 126.733 22.3206 126.968C21.5801 127.204 20.8845 127.277 20.2339 127.187C19.5791 127.094 19.0159 126.855 18.5443 126.47C18.0685 126.082 17.7268 125.562 17.5191 124.909C17.3993 124.533 17.3438 124.141 17.3525 123.734C17.3612 123.327 17.4588 122.928 17.6454 122.537C17.8288 122.147 18.1227 121.789 18.527 121.463C18.9313 121.138 19.4708 120.868 20.1454 120.653L20.616 120.503L22.389 126.076L21.4289 126.381L20.0153 121.938C19.6074 122.068 19.2694 122.266 19.0013 122.531C18.7321 122.792 18.5524 123.102 18.4622 123.459C18.3709 123.813 18.3891 124.19 18.5169 124.592C18.6577 125.034 18.8893 125.382 19.2118 125.636C19.5301 125.887 19.8908 126.043 20.294 126.105C20.6972 126.167 21.098 126.134 21.4965 126.007L22.1366 125.804C22.6826 125.63 23.1154 125.389 23.4352 125.08C23.7508 124.768 23.9535 124.412 24.0434 124.01C24.1301 123.609 24.1021 123.185 23.9593 122.736C23.8665 122.444 23.7418 122.194 23.5854 121.984C23.4248 121.773 23.2339 121.607 23.0127 121.487C22.7883 121.369 22.5357 121.302 22.2547 121.288L22.2145 120.119C22.6144 120.116 22.9948 120.204 23.3558 120.383C23.7136 120.563 24.0318 120.825 24.3104 121.168C24.5858 121.512 24.8013 121.929 24.9571 122.418Z" fill="white"/>
<path d="M16.5164 113.487L17.0215 114.451C16.8642 114.551 16.7182 114.681 16.5835 114.84C16.4449 114.997 16.3447 115.193 16.283 115.428C16.2213 115.663 16.2253 115.947 16.2949 116.279C16.3903 116.733 16.5745 117.09 16.8475 117.349C17.1167 117.605 17.4107 117.7 17.7298 117.633C18.0133 117.573 18.2156 117.423 18.3367 117.183C18.4578 116.942 18.5271 116.591 18.5447 116.13L18.584 114.971C18.6058 114.273 18.7485 113.727 19.0121 113.332C19.2725 112.937 19.6621 112.685 20.1809 112.577C20.6062 112.487 21.0122 112.53 21.3987 112.704C21.7846 112.876 22.1198 113.159 22.4045 113.553C22.6892 113.948 22.892 114.433 23.0131 115.01C23.172 115.767 23.1392 116.429 22.9147 116.994C22.6902 117.559 22.276 117.974 21.6721 118.239L21.1742 117.213C21.5521 117.026 21.8109 116.768 21.9505 116.439C22.0894 116.107 22.1098 115.708 22.0117 115.24C21.9001 114.709 21.6988 114.31 21.4076 114.045C21.1125 113.777 20.8055 113.677 20.4864 113.744C20.2286 113.798 20.0317 113.933 19.8955 114.15C19.7562 114.368 19.6822 114.673 19.6737 115.065L19.6434 116.363C19.625 117.077 19.4801 117.629 19.2087 118.019C18.9334 118.406 18.5396 118.654 18.0272 118.761C17.6083 118.849 17.213 118.81 16.8414 118.642C16.4691 118.471 16.1482 118.2 15.8786 117.83C15.6083 117.456 15.4184 117.008 15.3089 116.486C15.1547 115.751 15.1947 115.14 15.429 114.654C15.6627 114.164 16.0251 113.775 16.5164 113.487Z" fill="white"/>
<path d="M15.4994 105.446L15.9094 106.454C15.7433 106.539 15.5854 106.654 15.436 106.8C15.2829 106.943 15.1643 107.128 15.0803 107.356C14.9963 107.584 14.973 107.867 15.0104 108.204C15.0616 108.665 15.2107 109.038 15.4575 109.322C15.7008 109.603 15.9844 109.726 16.3084 109.69C16.5963 109.658 16.8122 109.528 16.9558 109.3C17.0995 109.072 17.2022 108.729 17.2641 108.272L17.4147 107.122C17.5035 106.43 17.6981 105.899 17.9985 105.532C18.2956 105.164 18.7076 104.951 19.2344 104.892C19.6664 104.844 20.0664 104.926 20.4343 105.137C20.8019 105.345 21.1084 105.658 21.3538 106.078C21.5992 106.498 21.7544 107.001 21.8195 107.587C21.9048 108.356 21.8086 109.011 21.5307 109.552C21.2529 110.093 20.8007 110.466 20.1742 110.672L19.7772 109.603C20.1714 109.453 20.4537 109.221 20.6243 108.907C20.7945 108.59 20.8533 108.195 20.8006 107.72C20.7407 107.18 20.5785 106.764 20.3142 106.472C20.0463 106.177 19.7503 106.048 19.4263 106.084C19.1645 106.113 18.9554 106.229 18.7991 106.432C18.6394 106.635 18.5365 106.931 18.4903 107.321L18.3352 108.61C18.2483 109.319 18.0509 109.854 17.7433 110.216C17.432 110.575 17.0162 110.784 16.4959 110.842C16.0704 110.889 15.6808 110.811 15.3271 110.609C14.9729 110.403 14.6795 110.102 14.4469 109.707C14.2138 109.309 14.0679 108.845 14.009 108.315C13.9262 107.569 14.0248 106.965 14.3048 106.503C14.5845 106.038 14.9827 105.686 15.4994 105.446Z" fill="white"/>
<path d="M21.2673 102.69L13.6872 102.995L13.6404 101.83L21.2205 101.525L21.2673 102.69ZM12.4001 102.453C12.4092 102.68 12.3397 102.879 12.1917 103.05C12.0436 103.217 11.8609 103.305 11.6438 103.314C11.4266 103.323 11.2375 103.25 11.0764 103.095C10.9152 102.936 10.83 102.744 10.8209 102.517C10.8118 102.29 10.8813 102.092 11.0294 101.925C11.1774 101.754 11.36 101.665 11.5772 101.656C11.7943 101.647 11.9835 101.722 12.1447 101.88C12.3058 102.035 12.3909 102.226 12.4001 102.453Z" fill="white"/>
<path d="M21.3901 96.1001C21.3648 96.7845 21.1797 97.379 20.8348 97.8835C20.4901 98.3848 20.0195 98.7693 19.4231 99.0372C18.8268 99.3018 18.1371 99.4196 17.354 99.3906C16.5643 99.3613 15.8803 99.1927 15.3019 98.8846C14.7236 98.5732 14.2811 98.1549 13.9744 97.6295C13.6678 97.1009 13.5271 96.4943 13.5525 95.8099C13.5778 95.1255 13.7629 94.5327 14.1076 94.0315C14.4525 93.5269 14.9247 93.1425 15.5243 92.878C16.124 92.6103 16.8187 92.491 17.6084 92.5202C18.3915 92.5492 19.0705 92.7194 19.6455 93.0306C20.2206 93.3386 20.6614 93.7569 20.9681 94.2855C21.2748 94.8109 21.4155 95.4157 21.3901 96.1001ZM20.3438 96.0614C20.3631 95.5415 20.2456 95.1088 19.9915 94.7634C19.7375 94.4179 19.3962 94.1565 18.9679 93.9792C18.5395 93.8018 18.072 93.7038 17.5652 93.685C17.0585 93.6663 16.5834 93.7294 16.1398 93.8744C15.6962 94.0195 15.3333 94.2548 15.051 94.5804C14.7688 94.906 14.6181 95.3288 14.5988 95.8487C14.5796 96.3686 14.6986 96.8013 14.956 97.1469C15.2134 97.4925 15.5579 97.754 15.9896 97.9315C16.4212 98.1089 16.8904 98.207 17.3971 98.2258C17.9038 98.2445 18.3773 98.1813 18.8176 98.0362C19.2579 97.891 19.6176 97.6556 19.8965 97.3298C20.1755 97.0041 20.3246 96.5813 20.3438 96.0614Z" fill="white"/>
<path d="M17.2243 88.7907L21.7388 89.4585L21.5682 90.6115L14.0636 89.5014L14.2284 88.3875L15.401 88.5609L15.4155 88.4632C15.0604 88.231 14.7937 87.9186 14.6155 87.5261C14.4339 87.1331 14.3851 86.6532 14.4689 86.0865C14.5441 85.5783 14.7141 85.1492 14.9789 84.7989C15.2405 84.4482 15.597 84.198 16.0485 84.0485C16.4968 83.8984 17.0401 83.8706 17.6785 83.965L22.447 84.6704L22.2765 85.8235L17.5861 85.1297C16.9966 85.0424 16.5147 85.1276 16.1404 85.3851C15.7629 85.6421 15.5346 86.0377 15.4556 86.5719C15.4011 86.94 15.4323 87.2808 15.549 87.5943C15.6662 87.9045 15.8656 88.1653 16.1472 88.3767C16.4288 88.5881 16.7878 88.7261 17.2243 88.7907Z" fill="white"/>
<path d="M23.6643 80.187C23.5439 80.6524 23.347 81.0521 23.0736 81.3861C22.7969 81.7193 22.4624 81.9541 22.07 82.0907C21.6744 82.2264 21.2375 82.2325 20.7593 82.1088C20.3385 81.9999 20.0189 81.8288 19.8004 81.5955C19.5787 81.3613 19.4288 81.0861 19.3507 80.77C19.2726 80.4539 19.2402 80.1191 19.2534 79.7654C19.2643 79.4077 19.2916 79.0525 19.3352 78.6999C19.3932 78.2388 19.4438 77.8659 19.4868 77.5811C19.5275 77.2923 19.5277 77.0747 19.4874 76.9282C19.4478 76.7786 19.3372 76.6803 19.1555 76.6333L19.1173 76.6234C18.6455 76.5013 18.2455 76.5356 17.9173 76.7262C17.59 76.9136 17.3591 77.2671 17.2247 77.7867C17.0854 78.3254 17.0941 78.7783 17.2508 79.1454C17.4075 79.5124 17.6037 79.7927 17.8393 79.9863L17.1797 80.9584C16.7829 80.6517 16.5014 80.3068 16.3352 79.9237C16.1667 79.5366 16.0821 79.1406 16.0814 78.7357C16.0783 78.3268 16.1246 77.9375 16.2202 77.5677C16.2813 77.3318 16.38 77.0683 16.5166 76.7771C16.6507 76.4819 16.841 76.2131 17.0873 75.9708C17.3345 75.7252 17.6566 75.5517 18.0535 75.4503C18.4504 75.3489 18.9406 75.3737 19.5239 75.5246L24.3629 76.7762L24.071 77.9047L23.0764 77.6474L23.0616 77.7048C23.2012 77.8226 23.3388 77.9942 23.4743 78.2197C23.6098 78.4452 23.703 78.7227 23.7538 79.0521C23.8046 79.3815 23.7748 79.7598 23.6643 80.187ZM22.6951 79.7527C22.8106 79.3064 22.8202 78.9076 22.724 78.5562C22.6287 78.2016 22.4626 77.9104 22.2256 77.6824C21.9895 77.4513 21.7185 77.2962 21.4124 77.217L20.3796 76.9499C20.4246 77.0125 20.45 77.1313 20.4558 77.3063C20.4592 77.4772 20.4512 77.6724 20.4319 77.8919C20.4101 78.1073 20.3865 78.3172 20.3608 78.5214C20.3329 78.7216 20.3112 78.8843 20.2958 79.0096C20.2582 79.3128 20.2494 79.603 20.2695 79.8803C20.2873 80.1535 20.3604 80.3901 20.489 80.59C20.6152 80.7859 20.8217 80.921 21.1086 80.9952C21.5007 81.0966 21.8347 81.0282 22.1105 80.7901C22.384 80.5479 22.5789 80.2021 22.6951 79.7527Z" fill="white"/>
<path d="M15.8974 70.2479L25.4739 73.5042L25.0987 74.6077L15.5222 71.3515L15.8974 70.2479Z" fill="white"/>
<path d="M25.2073 61.6264L26.189 62.0921L24.2923 66.0903L23.3106 65.6246L25.2073 61.6264Z" fill="white"/>
</g>
<defs>
<clipPath id="clip0_754_1216">
<rect width="198" height="198" rx="99" fill="white"/>
</clipPath>
</defs>
</svg>
