<svg width="48" height="48" viewBox="0 0 48 48" fill="none" xmlns="http://www.w3.org/2000/svg">
<path d="M13.881 9.99986C13.8802 11.6285 12.8922 13.094 11.3827 13.7055C9.8732 14.3169 8.14374 13.9521 7.0098 12.7831C5.87586 11.6141 5.5639 9.8743 6.221 8.38414C6.87812 6.89398 8.37308 5.951 10.001 5.99986C12.1631 6.06476 13.8819 7.83674 13.881 9.99986ZM14.001 16.9599H6.00096V41.9998H14.001V16.9599ZM26.641 16.9599H18.681V41.9998H26.561V28.8598C26.561 21.5398 36.101 20.8598 36.101 28.8598V41.9998H44.001V26.1398C44.001 13.7999 29.881 14.2599 26.561 20.3198L26.641 16.9599Z" fill="#A8A8A8"/>
</svg>
