<svg width="76" height="81" viewBox="0 0 76 81" fill="none" xmlns="http://www.w3.org/2000/svg">
<path d="M69.8957 65.5327C69.3359 69.6903 66.5383 73.2881 62.621 74.8869C60.7019 75.6856 58.6239 75.9259 56.5451 75.6856C54.547 75.446 52.548 74.8063 50.47 73.6083C47.5918 72.0079 44.7135 69.5306 41.3561 65.8529C46.6326 59.3777 49.8295 53.4615 51.029 48.1866C51.5889 45.7076 51.6687 43.4691 51.4291 41.3903C51.1097 39.3921 50.3901 37.5529 49.2705 35.9541C46.7923 32.3571 42.6355 30.2782 37.9987 30.2782C33.3619 30.2782 29.2051 32.4369 26.7269 35.9541C25.6073 37.5529 24.8885 39.3921 24.5683 41.3903C24.2488 43.4691 24.3287 45.7875 24.9684 48.1866C26.1671 53.4615 29.4446 59.4575 34.6413 65.932C31.3637 69.6104 28.4056 72.0886 25.5274 73.6874C23.4494 74.8869 21.4504 75.5266 19.4523 75.7654C17.2936 76.0058 15.2148 75.6856 13.3764 74.9668C9.45911 73.368 6.66153 69.7694 6.1017 65.6125C5.86211 63.6144 6.02184 61.6162 6.82126 59.3777C7.06084 58.5775 7.46095 57.7796 7.86027 56.8197C8.4201 55.5411 9.0598 54.181 9.6987 52.8218L9.77936 52.6629C15.2946 40.7506 21.2108 28.5995 27.3666 16.7687L27.6062 16.288C28.2459 15.09 28.8848 13.8114 29.5253 12.6119C30.1642 11.3325 30.8838 10.133 31.763 9.09318C33.4418 7.17409 35.6803 6.13508 38.1584 6.13508C40.6365 6.13508 42.8751 7.17409 44.5538 9.09318C45.4331 10.133 46.1526 11.3325 46.7923 12.6119C47.432 13.8114 48.0709 15.09 48.7106 16.288L48.951 16.7687C55.0261 28.6794 60.9423 40.8305 66.4584 52.7427V52.8218C67.0981 54.1012 67.6572 55.5411 68.2969 56.8197C68.697 57.7796 69.0963 58.5775 69.3359 59.3777C69.9756 61.4557 70.2151 63.4554 69.8957 65.5327ZM37.9987 61.7751C33.6821 56.3397 30.8838 51.2229 29.9246 46.9072C29.5253 45.0679 29.4446 43.4691 29.685 42.03C29.8448 40.7506 30.3247 39.6309 30.9636 38.671C32.4826 36.5147 35.0406 35.153 37.9987 35.153C40.9568 35.153 43.5946 36.4332 45.0338 38.671C45.6727 39.6309 46.1526 40.7506 46.3124 42.03C46.5519 43.4691 46.4721 45.1478 46.0728 46.9072C45.1136 51.1439 42.3153 56.2598 37.9987 61.7751ZM74.0525 57.6183C73.6532 56.6592 73.2531 55.6202 72.8538 54.7409C72.2141 53.3026 71.5744 51.9425 71.0146 50.6631L70.9347 50.584C65.4194 38.5919 59.5032 26.4409 53.2676 14.4511L53.028 13.9704C52.3883 12.7708 51.7486 11.4914 51.1097 10.2128C50.3095 8.77293 49.51 7.25555 48.2315 5.81563C45.6727 2.61794 41.9958 0.859375 38.0786 0.859375C34.0815 0.859375 30.4845 2.61794 27.8458 5.6567C26.6471 7.09502 25.7678 8.614 24.9684 10.0539C24.3287 11.3325 23.689 12.6119 23.0493 13.8114L22.8097 14.2898C16.6547 26.2811 10.6586 38.433 5.14255 50.4243L5.06269 50.584C4.50285 51.8626 3.86316 53.2211 3.22346 54.661C2.82415 55.5411 2.42404 56.5002 2.02473 57.5392C0.984921 60.4965 0.665472 63.2949 1.06478 66.1724C1.94487 72.1684 5.94197 77.2053 11.4581 79.4431C13.5361 80.3232 15.6948 80.7225 17.9333 80.7225C18.573 80.7225 19.3724 80.6426 20.0121 80.5619C22.65 80.2417 25.3677 79.364 28.0055 77.8442C31.2839 76.0058 34.4017 73.368 37.9188 69.5306C41.436 73.368 44.6337 76.0058 47.8313 77.8442C50.47 79.364 53.1877 80.2417 55.8256 80.5619C56.4653 80.6426 57.2647 80.7225 57.9044 80.7225C60.1429 80.7225 62.3807 80.3232 64.3796 79.4431C69.9756 77.2053 73.8928 72.0886 74.7721 66.1724C75.4118 63.374 75.0915 60.5772 74.0525 57.6183Z" fill="white"/>
</svg>
