<svg width="136" height="46" viewBox="0 0 136 46" fill="none" xmlns="http://www.w3.org/2000/svg">
<g clip-path="url(#clip0_2_3357)">
<path d="M0 0.000244141V46.0002H46.0752V0.000244141H0ZM14.0945 29.4074H7.33576V22.0967H14.0945L17.7212 25.7931L14.0945 29.4074ZM14.177 21.9324L9.39636 17.1681L14.5891 11.9931L19.3697 16.7574V21.9324H14.177ZM19.3697 9.93953H26.7055V16.7574L23.0788 20.3717L19.4521 16.7574V9.93953H19.3697ZM26.7879 36.061H19.4521V24.1502L23.0788 20.4538L26.7879 24.1502V36.061ZM26.7879 16.7574L31.5685 11.9931L36.7612 17.1681L31.9806 21.9324H26.7879V16.7574ZM31.9806 29.4074L28.3539 25.711L31.9806 22.0145H38.7394V29.3252L31.9806 29.4074Z" fill="#B2B2B2"/>
<path d="M55.9663 9.93958V18.9753H59.2633V20.536H53.4111V9.93958H55.9663Z" fill="#B2B2B2"/>
<path d="M63.3843 16.511H65.4449L64.4558 13.2253L63.3843 16.511ZM65.5273 9.93958L69.3188 20.4539H66.6812L65.857 17.9074H62.9721L62.1479 20.4539H60.417L64.1261 9.93958H65.5273Z" fill="#B2B2B2"/>
<path d="M72.3686 9.93958V15.6896C72.3686 17.1681 72.3686 17.7431 72.7808 18.3181C73.1105 18.811 73.605 19.0574 74.182 19.0574C74.5941 19.0574 75.4183 18.811 75.748 17.9896C75.9129 17.5789 75.9953 17.1681 75.9953 15.6896V9.93958H77.7262V15.7717C77.7262 16.5931 77.9735 20.6181 73.6874 20.6181C73.1105 20.6181 71.2147 20.536 70.2256 18.6467C69.8959 17.9896 69.8135 17.2503 69.8135 15.936V9.93958H72.3686Z" fill="#B2B2B2"/>
<path d="M82.0948 11.336V14.7039H82.5069C83.0839 14.7039 84.1554 14.7039 84.1554 12.8967C84.1554 11.336 83.2487 11.336 82.5069 11.336H82.0948ZM82.5069 9.93958C83.9906 9.93958 84.5675 10.0217 85.3093 10.3503C86.0512 10.6789 86.7106 11.4181 86.7106 12.5681C86.7106 13.8003 86.0512 14.8681 84.5675 15.361L87.6172 20.536H84.8148L82.5069 16.0181H82.0948V20.536H79.6221V9.93958H82.5069Z" fill="#B2B2B2"/>
<path d="M94.623 9.93958V11.5003H91.2436V14.2931H94.3758V15.7717H91.2436V18.8931H94.7054V20.4539H88.6885V9.93958H94.623Z" fill="#B2B2B2"/>
<path d="M98.1676 9.93958L102.783 16.3467V9.93958H104.514V20.4539H102.866L98.3325 14.0467V20.4539H96.6016V9.93958H98.1676Z" fill="#B2B2B2"/>
<path d="M113.333 9.93958V11.4181H110.696V20.4539H108.141V11.4181H105.503V9.93958H113.333Z" fill="#B2B2B2"/>
<path d="M116.96 9.93958H114.405V20.4539H116.96V9.93958Z" fill="#B2B2B2"/>
<path d="M121.082 16.511H123.142L122.153 13.2253L121.082 16.511ZM123.225 9.93958L127.016 20.4539H124.378L123.554 17.9074H120.669L119.845 20.4539H118.114L121.823 9.93958H123.225Z" fill="#B2B2B2"/>
<path d="M129.653 9.93958L134.269 16.3467V9.93958H136V20.4539H134.351L129.818 14.0467V20.4539H128.087V9.93958H129.653Z" fill="#B2B2B2"/>
<path d="M56.5427 34.5823C56.9548 34.5823 57.4493 34.5823 57.8615 34.3359C58.2736 34.0895 58.5209 33.5145 58.5209 32.7752C58.5209 32.1181 58.356 31.7073 57.9439 31.4609C57.6142 31.2145 57.1196 31.2145 56.5427 31.2145H56.0481V34.5823H56.5427ZM56.4602 29.9002C56.7899 29.9002 57.2845 29.9002 57.6142 29.6538C58.0263 29.4073 58.1912 28.9145 58.1912 28.2573C58.1912 27.7645 58.0263 27.3538 57.6966 27.1073C57.3669 26.9431 56.9548 26.8609 56.4602 26.8609H55.8833V29.8181H56.4602V29.9002ZM56.9548 25.5466C57.779 25.5466 58.6857 25.6288 59.4275 25.9573C60.1693 26.2859 60.5815 26.9431 60.5815 27.9288C60.5815 29.2431 59.6748 30.1466 58.4384 30.4752C58.7681 30.5573 59.4275 30.6395 60.0045 31.0502C60.5815 31.4609 60.9936 32.1181 60.9936 33.0216C60.9936 33.9252 60.499 35.1573 59.1803 35.6502C58.6033 35.8966 57.8615 36.0609 56.213 36.0609H53.3281V25.5466H56.9548Z" fill="#B2B2B2"/>
<path d="M64.7034 32.1181H66.764L65.7749 28.8323L64.7034 32.1181ZM66.764 25.5466L70.5555 36.1431H67.918L67.0937 33.5966H64.2089L63.3846 36.1431H61.5713L65.2804 25.5466H66.764Z" fill="#B2B2B2"/>
<path d="M73.193 25.5466L77.8088 32.0359V25.5466H79.5397V36.1431H77.8912L73.3579 29.5716V36.0609H71.627V25.5466H73.193Z" fill="#B2B2B2"/>
<path d="M83.9905 25.5466V30.3931L87.5347 25.5466H89.5129L86.0511 29.9002L89.6778 36.1431H86.6281L83.8257 30.8859V36.1431H81.2705V25.5466H83.9905Z" fill="#B2B2B2"/>
</g>
<defs>
<clipPath id="clip0_2_3357">
<rect width="136" height="46" fill="white" transform="translate(0 0.000244141)"/>
</clipPath>
</defs>
</svg>
