<svg viewBox="0 0 32 32" fill="none" xmlns="http://www.w3.org/2000/svg">
<g clip-path="url(#clip0_2_913)">
<path d="M12 14.6665C12 15.7274 12.4214 16.7448 13.1716 17.4949C13.9217 18.2451 14.9391 18.6665 16 18.6665C17.0609 18.6665 18.0783 18.2451 18.8284 17.4949C19.5786 16.7448 20 15.7274 20 14.6665C20 13.6056 19.5786 12.5882 18.8284 11.8381C18.0783 11.0879 17.0609 10.6665 16 10.6665C14.9391 10.6665 13.9217 11.0879 13.1716 11.8381C12.4214 12.5882 12 13.6056 12 14.6665Z" stroke="#EB3B4D" stroke-width="2" stroke-linecap="round" stroke-linejoin="round"/>
<path d="M23.5433 22.2094L17.886 27.8668C17.386 28.3663 16.7081 28.6469 16.0013 28.6469C15.2945 28.6469 14.6167 28.3663 14.1167 27.8668L8.45799 22.2094C6.96628 20.7176 5.95044 18.817 5.53891 16.7479C5.12737 14.6788 5.33864 12.5341 6.14599 10.5851C6.95334 8.63602 8.32052 6.97015 10.0746 5.79811C11.8287 4.62606 13.891 4.00049 16.0007 4.00049C18.1103 4.00049 20.1726 4.62606 21.9267 5.79811C23.6808 6.97015 25.048 8.63602 25.8553 10.5851C26.6627 12.5341 26.8739 14.6788 26.4624 16.7479C26.0509 18.817 25.035 20.7176 23.5433 22.2094Z" stroke="#EB3B4D" stroke-width="2" stroke-linecap="round" stroke-linejoin="round"/>
</g>
<defs>
<clipPath id="clip0_2_913">
<rect width="32" height="32" fill="white"/>
</clipPath>
</defs>
</svg>
