<svg width="202" height="63" viewBox="0 0 202 63" fill="none" xmlns="http://www.w3.org/2000/svg">
<g clip-path="url(#clip0_2_3390)">
<path d="M106.902 15.8288C106.902 18.0991 105.081 19.9279 102.819 19.9279C100.558 19.9279 98.7364 18.0991 98.7364 15.8288C98.7364 13.5586 100.495 11.7297 102.819 11.7297C105.143 11.7928 106.902 13.6216 106.902 15.8288ZM90.0683 24.0901C90.0683 24.4685 90.0683 25.0991 90.0683 25.0991C90.0683 25.0991 88.1211 22.5766 83.9754 22.5766C77.1288 22.5766 71.7897 27.8108 71.7897 35.0631C71.7897 42.2523 77.066 47.5495 83.9754 47.5495C88.1839 47.5495 90.0683 44.964 90.0683 44.964V46.036C90.0683 46.5405 90.4452 46.9189 90.9477 46.9189H96.0355V23.2072C96.0355 23.2072 91.3873 23.2072 90.9477 23.2072C90.4452 23.2072 90.0683 23.6486 90.0683 24.0901ZM90.0683 39.2883C89.1261 40.6757 87.2417 41.8739 84.9804 41.8739C80.9604 41.8739 77.8826 39.3513 77.8826 35.0631C77.8826 30.7748 80.9604 28.2523 84.9804 28.2523C87.1789 28.2523 89.1889 29.5135 90.0683 30.8378V39.2883ZM99.8043 23.2072H105.834V46.9189H99.8043V23.2072ZM189.878 22.5766C185.732 22.5766 183.785 25.0991 183.785 25.0991V11.7928H177.755V46.9189C177.755 46.9189 182.403 46.9189 182.843 46.9189C183.345 46.9189 183.722 46.4775 183.722 46.036V44.964C183.722 44.964 185.669 47.5495 189.815 47.5495C196.662 47.5495 202.001 42.2523 202.001 35.0631C202.001 27.8739 196.662 22.5766 189.878 22.5766ZM188.873 41.8108C186.549 41.8108 184.727 40.6126 183.785 39.2252V30.7748C184.727 29.5135 186.737 28.1892 188.873 28.1892C192.893 28.1892 195.971 30.7117 195.971 35C195.971 39.2883 192.893 41.8108 188.873 41.8108ZM174.614 32.8559V46.982H168.584V33.5495C168.584 29.6396 167.328 28.0631 163.936 28.0631C162.115 28.0631 160.23 29.009 159.037 30.3964V46.9189H153.007V23.2072H157.78C158.283 23.2072 158.66 23.6486 158.66 24.0901V25.0991C160.419 23.2703 162.743 22.5766 165.067 22.5766C167.705 22.5766 169.903 23.3333 171.662 24.8468C173.798 26.6126 174.614 28.8829 174.614 32.8559ZM138.371 22.5766C134.226 22.5766 132.278 25.0991 132.278 25.0991V11.7928H126.248V46.9189C126.248 46.9189 130.897 46.9189 131.336 46.9189C131.839 46.9189 132.216 46.4775 132.216 46.036V44.964C132.216 44.964 134.163 47.5495 138.309 47.5495C145.155 47.5495 150.494 42.2523 150.494 35.0631C150.557 27.8739 145.218 22.5766 138.371 22.5766ZM137.366 41.8108C135.042 41.8108 133.221 40.6126 132.278 39.2252V30.7748C133.221 29.5135 135.231 28.1892 137.366 28.1892C141.386 28.1892 144.464 30.7117 144.464 35C144.464 39.2883 141.386 41.8108 137.366 41.8108ZM121.035 22.5766C122.857 22.5766 123.799 22.8919 123.799 22.8919V28.5045C123.799 28.5045 118.774 26.8018 115.633 30.3964V46.982H109.603V23.2072C109.603 23.2072 114.251 23.2072 114.691 23.2072C115.193 23.2072 115.57 23.6486 115.57 24.0901V25.0991C116.701 23.7748 119.151 22.5766 121.035 22.5766ZM58.4106 44.7748C58.0965 44.018 57.7825 43.1982 57.4684 42.5045C56.9659 41.3694 56.4634 40.2973 56.0237 39.2883L55.9609 39.2252C51.6268 29.7658 46.9787 20.1802 42.0793 10.7207L41.8908 10.3423C41.3883 9.3964 40.8858 8.38739 40.3833 7.37838C39.7552 6.24324 39.1271 5.04504 38.1221 3.90991C36.1121 1.38739 33.2227 0 30.1448 0C27.0042 0 24.1776 1.38739 22.1048 3.78378C21.1626 4.91892 20.4717 6.11712 19.8435 7.25225C19.341 8.26126 18.8385 9.27027 18.336 10.2162L18.1476 10.5946C13.311 20.0541 8.60004 29.6396 4.26595 39.0991L4.20314 39.2252C3.76345 40.2342 3.26095 41.3063 2.75845 42.4414C2.44438 43.1351 2.13032 43.8919 1.81625 44.7117C0.999688 47.045 0.748437 49.2523 1.0625 51.5225C1.75344 56.2522 4.89408 60.2252 9.22817 61.991C10.8613 62.6847 12.5572 63 14.316 63C14.8185 63 15.4466 62.9369 15.9491 62.8739C18.022 62.6216 20.1576 61.9279 22.2304 60.7297C24.8057 59.2793 27.2554 57.1982 30.0192 54.1712C32.783 57.1982 35.2955 59.2793 37.808 60.7297C39.8808 61.9279 42.0165 62.6216 44.0893 62.8739C44.5918 62.9369 45.2199 63 45.7224 63C47.4812 63 49.2399 62.6847 50.8103 61.991C55.2072 60.2252 58.285 56.1892 58.9759 51.5225C59.4784 49.3153 59.2272 47.1081 58.4106 44.7748ZM30.082 48.0541C26.6901 43.7658 24.4917 39.7297 23.7379 36.3243C23.4239 34.8739 23.3611 33.6126 23.5495 32.4775C23.6751 31.4685 24.052 30.5856 24.5545 29.8288C25.7479 28.1261 27.758 27.0541 30.082 27.0541C32.4061 27.0541 34.4789 28.0631 35.6096 29.8288C36.1121 30.5856 36.4889 31.4685 36.6146 32.4775C36.803 33.6126 36.7402 34.9369 36.4261 36.3243C35.6724 39.6667 33.4739 43.7027 30.082 48.0541ZM55.1443 51.018C54.7047 54.2973 52.5062 57.1351 49.4284 58.3964C47.9209 59.027 46.2877 59.2162 44.6546 59.027C43.0843 58.8378 41.514 58.3333 39.8808 57.3874C37.6196 56.1261 35.3583 54.1712 32.7202 51.2703C36.8658 46.1622 39.3783 41.4955 40.3205 37.3333C40.7602 35.3784 40.823 33.6126 40.6346 31.973C40.3833 30.3964 39.818 28.9459 38.9386 27.6847C36.9914 24.8468 33.7252 23.2072 30.082 23.2072C26.4389 23.2072 23.1726 24.9099 21.2254 27.6847C20.346 28.9459 19.7807 30.3964 19.5295 31.973C19.2782 33.6126 19.341 35.4414 19.8435 37.3333C20.7857 41.4955 23.3611 46.2252 27.4439 51.3333C24.8686 54.2342 22.5445 56.1892 20.2832 57.4504C18.6501 58.3964 17.0798 58.9009 15.5094 59.0901C13.8135 59.2793 12.1804 59.027 10.7357 58.4595C7.65785 57.1982 5.4594 54.3604 5.01971 51.0811C4.83127 49.5045 4.9569 47.9279 5.58502 46.1622C5.77346 45.5315 6.08753 44.9009 6.40159 44.1441C6.84128 43.1351 7.34378 42.0631 7.84629 40.991L7.9091 40.8649C12.2432 31.4685 16.8913 21.8829 21.7279 12.5495L21.9164 12.1712C22.4189 11.2252 22.9214 10.2162 23.4239 9.27027C23.9264 8.26126 24.4917 7.31532 25.1826 6.4955C26.5017 4.98198 28.2605 4.16216 30.2077 4.16216C32.1548 4.16216 33.9136 4.98198 35.2327 6.4955C35.9236 7.31532 36.4889 8.26126 36.9914 9.27027C37.4939 10.2162 37.9964 11.2252 38.4989 12.1712L38.6874 12.5495C43.4612 21.9459 48.1093 31.5315 52.4434 40.9279V40.991C52.9459 42 53.3856 43.1351 53.8881 44.1441C54.2021 44.9009 54.5162 45.5315 54.7047 46.1622C55.2072 47.8018 55.3956 49.3784 55.1443 51.018Z" fill="white"/>
</g>
<defs>
<clipPath id="clip0_2_3390">
<rect width="201.064" height="63" fill="white" transform="translate(0.936523)"/>
</clipPath>
</defs>
</svg>
