<svg width="134" height="111" viewBox="0 0 134 111" fill="none" xmlns="http://www.w3.org/2000/svg">
<path d="M76.3488 111V72.1888C76.3488 53.5594 81.0233 37.6468 90.3721 24.451C99.7209 11.2552 114.264 3.10489 134 0V24.0629C122.574 25.6154 114.783 29.6259 110.628 36.0944C106.733 42.3042 104.785 51.2308 104.785 62.8741L85.6977 58.993L133.221 58.993V111H76.3488ZM0 111L0 72.1888C0 53.5594 4.67442 37.6468 14.0233 24.451C23.3721 11.2552 37.9147 3.10489 57.6512 0V24.0629C46.2248 25.6154 38.4341 29.6259 34.2791 36.0944C30.3837 42.3042 28.4361 51.2308 28.4361 62.8741L9.34884 58.993L56.8721 58.993L56.8721 111H0Z" fill="#4BF1C5"/>
</svg>
